<svg width="116" height="576" viewBox="0 0 116 576" fill="none" xmlns="http://www.w3.org/2000/svg">
<g opacity="0.05">
<path d="M377.479 207.509C371.31 219.976 360.273 228.408 347.811 231.646C337.438 234.341 326.077 233.438 315.716 228.267C306.308 223.572 299.195 216.093 294.876 207.321C294.738 207.04 294.602 206.758 294.469 206.474C292.123 201.456 290.68 196.038 290.232 190.492C289.58 182.416 291.037 174.068 294.885 166.289C300.835 154.265 311.312 145.994 323.229 142.517C333.954 139.387 345.845 140.139 356.649 145.531C367.849 151.121 375.799 160.658 379.65 171.623C383.641 182.985 383.231 195.882 377.479 207.509Z" fill="#0D8570"/>
<path d="M408.715 298.014C420.02 303.656 428.012 313.318 431.823 324.411C435.7 335.699 435.247 348.469 429.546 359.992C424.039 371.122 414.653 379.035 403.838 382.909C392.451 386.987 379.479 386.588 367.782 380.75C358.798 376.266 351.906 369.243 347.542 360.98C345.922 357.911 344.65 354.672 343.749 351.327C340.919 340.818 341.755 329.277 346.952 318.772C352.006 308.557 360.329 301.051 370.026 296.892C382.015 291.748 396.106 291.721 408.715 298.014Z" fill="#0D8570"/>
<path fill-rule="evenodd" clip-rule="evenodd" d="M512.928 212.077C529.587 135.964 493.299 55.2981 420.493 18.9633C347.688 -17.3715 261.759 2.29995 211.421 61.6053C135.482 44.7405 55.1148 80.9598 19.0325 153.891C-17.0498 226.822 2.74725 313.03 61.9945 363.632C45.3351 439.745 81.6229 520.41 154.429 556.745C227.234 593.08 313.163 573.409 363.501 514.103C439.44 530.968 519.807 494.749 555.889 421.818C591.972 348.886 572.175 262.678 512.928 212.077ZM182.995 108.465C171.653 136.187 178.257 144.673 181.431 172.847C170.373 176.643 160.752 184.639 155.149 195.965C149.545 207.29 149.011 219.821 152.677 230.965C156.405 242.301 164.478 252.202 175.979 257.942C188.913 264.397 203.405 264.203 215.59 258.658C215.857 259.012 215.32 258.305 215.59 258.658C226.643 256.343 238.856 256.604 250.29 257.428C264.787 258.473 269.068 282.867 282.99 289.357C283.996 289.826 284.999 290.31 285.999 290.809C286.999 291.308 287.989 291.819 288.969 292.341C302.527 299.565 314.211 308.997 323.796 319.97C331.356 328.625 337.611 338.239 342.45 348.485C342.895 349.427 343.328 350.375 343.749 351.327C344.65 354.672 345.922 357.911 347.542 360.98C357.625 390.155 356.85 423.064 342.988 453.068C342.522 454.076 342.042 455.081 341.546 456.083C334.198 470.936 324.257 483.641 312.545 493.923C276.216 525.815 222.836 534.391 176.844 511.438C130.852 488.485 105.418 440.575 108.784 392.233C135.935 403.451 164.512 407.25 192.112 404.437C195.876 415.669 203.915 425.468 215.332 431.166C227.138 437.058 240.241 437.41 251.704 433.21C262.386 429.296 271.643 421.429 277.095 410.408C283.426 397.612 283.286 383.279 277.93 371.145C273.724 361.613 266.299 353.438 256.265 348.43C246.875 343.744 236.665 342.563 227.111 344.388C227.11 343.882 227.109 344.895 227.111 344.388C192.54 350.996 157.133 359.187 122.819 343.189C121.812 342.72 120.809 342.236 119.809 341.737C104.981 334.337 92.2903 324.343 82.0122 312.577C50.1328 276.081 41.4687 222.535 64.2622 176.464C87.0558 130.392 134.78 104.988 182.995 108.465ZM398.078 64.2709C444.07 87.224 469.504 135.133 466.138 183.475C437.949 171.829 408.224 168.179 379.65 171.623C375.799 160.658 367.849 151.121 356.649 145.531C345.845 140.139 333.954 139.387 323.229 142.517C311.312 145.994 300.835 154.265 294.885 166.289C291.037 174.068 289.58 182.416 290.232 190.492C290.68 196.038 292.123 201.456 294.469 206.474C294.602 206.758 294.738 207.04 294.876 207.321C299.195 216.093 306.308 223.572 315.716 228.267C326.077 233.438 337.438 234.341 347.811 231.646C347.814 231.248 347.812 232.044 347.811 231.646C385.422 221.874 417.789 216.522 452.103 232.519C453.11 232.989 454.113 233.473 455.113 233.971C469.941 241.372 482.632 251.366 492.91 263.132C524.789 299.628 533.453 353.174 510.66 399.245C487.866 445.316 440.142 470.721 391.926 467.244C403.164 439.779 406.856 410.84 403.838 382.909C414.653 379.035 424.039 371.122 429.546 359.992C435.247 348.469 435.7 335.699 431.823 324.411C428.012 313.318 420.02 303.656 408.715 298.014C396.106 291.721 382.015 291.748 370.026 296.892C369.616 296.343 369.203 295.797 368.786 295.254C361.481 285.719 353.136 276.876 343.814 268.915C336.303 262.499 328.158 256.657 319.412 251.486C315.845 249.377 312.179 247.38 308.415 245.501C304.651 243.623 300.852 241.894 297.024 240.313C287.639 236.435 278.083 233.444 268.456 231.306C256.507 228.652 254.709 206.576 242.731 206.487C239.125 198.852 226.046 211.603 224.058 203.402C217.708 177.21 219.839 148.819 231.934 122.64C232.4 121.632 232.88 120.627 233.376 119.626C240.724 104.772 250.665 92.0671 262.377 81.7852C298.706 49.8939 352.086 41.3179 398.078 64.2709Z" fill="#0D8570"/>
</g>
</svg>
