<svg width="600" height="600" viewBox="0 0 600 600" fill="none" xmlns="http://www.w3.org/2000/svg">
<path d="M600 458.88H0V459.18H600V458.88Z" fill="#EBEBEB"/>
<path d="M133.992 468.948H94.248V469.248H133.992V468.948Z" fill="#EBEBEB"/>
<path d="M196.2 477.6H159.996V477.9H196.2V477.6Z" fill="#EBEBEB"/>
<path d="M114.12 480.084H68.22V480.384H114.12V480.084Z" fill="#EBEBEB"/>
<path d="M539.88 479.436H520.8V479.736H539.88V479.436Z" fill="#EBEBEB"/>
<path d="M516.948 479.436H469.764V479.736H516.948V479.436Z" fill="#EBEBEB"/>
<path d="M336.396 468.792H300V469.092H336.396V468.792Z" fill="#EBEBEB"/>
<path d="M428.124 468.792H341.604V469.092H428.124V468.792Z" fill="#EBEBEB"/>
<path d="M284.4 405.36H52.6921C50.8769 405.357 49.1371 404.634 47.8547 403.349C46.5723 402.064 45.852 400.323 45.8521 398.508V72.792C45.8679 70.9872 46.5951 69.2616 47.8758 67.9899C49.1565 66.7181 50.8872 66.0031 52.6921 66H284.4C286.217 66 287.96 66.7219 289.245 68.0069C290.53 69.2919 291.252 71.0347 291.252 72.852V398.508C291.252 400.325 290.53 402.068 289.245 403.353C287.96 404.638 286.217 405.36 284.4 405.36ZM52.6921 66.24C50.9564 66.2432 49.293 66.9349 48.0668 68.1633C46.8407 69.3917 46.152 71.0564 46.1521 72.792V398.508C46.152 400.244 46.8407 401.908 48.0668 403.137C49.293 404.365 50.9564 405.057 52.6921 405.06H284.4C286.137 405.057 287.801 404.366 289.03 403.137C290.258 401.909 290.949 400.245 290.952 398.508V72.792C290.949 71.0553 290.258 69.3906 289.03 68.1625C287.801 66.9345 286.137 66.2432 284.4 66.24H52.6921Z" fill="#EBEBEB"/>
<path d="M543.972 405.36H312.252C310.436 405.357 308.695 404.634 307.41 403.35C306.126 402.065 305.403 400.324 305.4 398.508V72.792C305.419 70.9861 306.149 69.2605 307.431 67.9891C308.714 66.7177 310.446 66.0031 312.252 66H543.972C545.775 66.0062 547.502 66.7227 548.78 67.9941C550.059 69.2654 550.784 70.9893 550.8 72.792V398.508C550.8 400.321 550.081 402.06 548.801 403.345C547.522 404.629 545.785 405.354 543.972 405.36ZM312.252 66.24C310.515 66.2432 308.85 66.9345 307.622 68.1625C306.394 69.3906 305.703 71.0553 305.7 72.792V398.508C305.703 400.245 306.394 401.909 307.622 403.137C308.85 404.366 310.515 405.057 312.252 405.06H543.972C545.709 405.057 547.373 404.366 548.601 403.137C549.829 401.909 550.521 400.245 550.524 398.508V72.792C550.521 71.0553 549.829 69.3906 548.601 68.1625C547.373 66.9345 545.709 66.2432 543.972 66.24H312.252Z" fill="#EBEBEB"/>
<path d="M500.784 307.968H456.084V458.88H500.784V307.968Z" fill="#E6E6E6"/>
<path d="M493.356 458.88H500.784V445.296H485.544L493.356 458.88Z" fill="#F0F0F0"/>
<path d="M318.828 307.968H274.128V458.88H318.828V307.968Z" fill="#E6E6E6"/>
<path d="M500.796 307.968H312.348V453.66H500.796V307.968Z" fill="#F0F0F0"/>
<path d="M495.024 314.424H318.12V354.384H495.024V314.424Z" fill="#E6E6E6"/>
<path d="M414.924 326.844H398.208C391.008 326.844 384.012 321.912 379.008 313.212H434.1C429.12 321.912 422.184 326.844 414.924 326.844Z" fill="#F0F0F0"/>
<path d="M319.788 458.88H312.348V445.296H327.588L319.788 458.88Z" fill="#F0F0F0"/>
<path d="M495.024 360.84H318.12V400.8H495.024V360.84Z" fill="#E6E6E6"/>
<path d="M414.924 373.2H398.208C391.008 373.2 384.012 368.28 379.008 359.568H434.1C429.12 368.328 422.184 373.2 414.924 373.2Z" fill="#F0F0F0"/>
<path d="M495.024 407.256H318.12V447.216H495.024V407.256Z" fill="#E6E6E6"/>
<path d="M414.924 419.664H398.208C391.008 419.664 384.012 414.732 379.008 406.032H434.1C429.12 414.732 422.184 419.664 414.924 419.664Z" fill="#F0F0F0"/>
<path d="M521.148 112.26H328.116V205.956H521.148V112.26Z" fill="#F0F0F0"/>
<path d="M528.108 112.26H331.368V205.956H528.108V112.26Z" fill="#F5F5F5"/>
<path d="M518.376 198.168V120.06L341.112 120.06V198.168H518.376Z" fill="white"/>
<path d="M462.672 274.872C466.152 238.872 468.564 180.336 466.692 160.776C466.656 160.441 466.55 160.117 466.38 159.825C466.211 159.534 465.982 159.281 465.708 159.084C465.345 158.818 464.914 158.66 464.465 158.627C464.016 158.594 463.567 158.689 463.169 158.899C462.772 159.109 462.441 159.427 462.215 159.816C461.989 160.205 461.877 160.65 461.892 161.1C462.216 170.796 462.6 195.024 460.536 236.82C459.504 257.616 458.028 271.86 459.048 274.872H462.672Z" fill="#F0F0F0"/>
<path d="M472.644 197.352C480.588 187.128 497.028 179.04 513.876 177.804C520.488 177.312 493.92 190.5 482.976 203.676C474.492 213.9 464.976 230.748 461.808 239.94C463.668 220.968 464.688 207.6 472.644 197.352Z" fill="#F0F0F0"/>
<path d="M456 195.144C447.78 183.696 428.796 174.876 408.252 173.88C400.188 173.496 430.872 187.872 442.32 202.608C451.212 214.044 460.32 233.004 462.84 243.408C463.452 221.832 464.232 206.604 456 195.144Z" fill="#F0F0F0"/>
<path d="M472.092 163.656C478.368 155.124 492.228 148.116 506.892 146.688C512.652 146.124 490.26 157.488 481.572 168.552C474.816 177.096 467.64 191.076 465.48 198.648C465.84 183.132 465.828 172.188 472.092 163.656Z" fill="#F0F0F0"/>
<path d="M459.456 165.408C452.484 155.7 436.416 148.248 419.016 147.408C412.188 147.084 438.216 159.252 447.816 171.732C455.352 181.416 463.08 197.472 465.204 206.28C465.756 187.992 466.416 175.104 459.456 165.408Z" fill="#F0F0F0"/>
<path d="M467.88 235.848C472.416 229.416 482.604 224.004 493.488 222.708C497.76 222.204 481.296 231.024 475.008 239.34C470.124 245.796 465 256.284 463.512 261.936C463.524 250.404 463.356 242.28 467.88 235.848Z" fill="#F0F0F0"/>
<path d="M459.6 232.224C455.664 225.84 445.92 220.452 435.06 219.156C430.788 218.652 446.532 227.424 452.064 235.668C456.348 242.076 460.464 252.468 461.424 258.084C462.6 246.66 463.584 238.608 459.6 232.224Z" fill="#F0F0F0"/>
<path d="M461.196 307.968C469.872 307.968 477.036 306.156 477.528 297.504L478.98 272.46H443.424L444.876 297.504C445.368 306.156 452.532 307.968 461.196 307.968Z" fill="#E6E6E6"/>
<path d="M443.628 278.16H478.8C479.488 278.158 480.151 277.902 480.663 277.442C481.174 276.981 481.498 276.348 481.572 275.664L482.112 270.864C482.154 270.473 482.113 270.077 481.993 269.703C481.872 269.328 481.674 268.983 481.412 268.69C481.149 268.397 480.828 268.163 480.469 268.002C480.11 267.841 479.721 267.757 479.328 267.756H443.1C442.706 267.757 442.318 267.841 441.959 268.002C441.6 268.163 441.279 268.397 441.016 268.69C440.754 268.983 440.556 269.328 440.435 269.703C440.314 270.077 440.274 270.473 440.316 270.864L440.844 275.664C440.92 276.349 441.247 276.982 441.76 277.443C442.273 277.903 442.938 278.158 443.628 278.16Z" fill="#F0F0F0"/>
<path d="M330.3 307.968H306.72L313.704 256.284H330.3V307.968Z" fill="#E6E6E6"/>
<path d="M364.908 307.968H320.22L311.892 247.476H356.592L364.908 307.968Z" fill="#F0F0F0"/>
<path d="M370.872 307.968H324.372L316.056 247.476H362.556L370.872 307.968Z" fill="#F5F5F5"/>
<path d="M328.476 303.204L321.468 252.24H358.44L365.448 303.204H328.476Z" fill="white"/>
<path d="M349.32 291.444H340.512C339.746 291.445 339.005 291.169 338.427 290.666C337.849 290.163 337.473 289.467 337.368 288.708L334.464 267.6C334.4 267.151 334.433 266.694 334.561 266.259C334.69 265.824 334.91 265.422 335.208 265.08C335.509 264.741 335.879 264.469 336.292 264.283C336.706 264.097 337.154 264.001 337.608 264H346.416C347.182 264.001 347.921 264.279 348.499 264.781C349.076 265.284 349.453 265.978 349.56 266.736L352.464 287.844C352.526 288.293 352.491 288.75 352.361 289.184C352.231 289.618 352.01 290.019 351.712 290.36C351.414 290.701 351.046 290.974 350.634 291.161C350.221 291.348 349.773 291.445 349.32 291.444ZM338.52 288.54C338.586 289.012 338.821 289.444 339.18 289.757C339.539 290.07 340 290.243 340.476 290.244H349.284C349.566 290.245 349.844 290.186 350.101 290.07C350.358 289.954 350.587 289.784 350.772 289.572C350.956 289.358 351.094 289.107 351.174 288.836C351.255 288.565 351.277 288.28 351.24 288L348.336 266.904C348.27 266.432 348.035 266 347.676 265.687C347.317 265.374 346.857 265.201 346.38 265.2H337.572C337.29 265.197 337.011 265.256 336.754 265.372C336.497 265.488 336.268 265.659 336.084 265.872C335.896 266.081 335.756 266.33 335.675 266.6C335.594 266.869 335.574 267.154 335.616 267.432L338.52 288.54Z" fill="#F5F5F5"/>
<path d="M253.8 109.5H75.7441V297.396H253.8V109.5Z" fill="#E6E6E6"/>
<path d="M272.892 103.416H64.224C63.9913 103.416 63.761 103.462 63.5462 103.551C63.3314 103.641 63.1364 103.772 62.9724 103.937C62.8084 104.102 62.6788 104.298 62.5908 104.513C62.5029 104.729 62.4584 104.959 62.46 105.192C62.46 105.66 62.6459 106.109 62.9767 106.439C63.3075 106.77 63.7562 106.956 64.224 106.956H272.892C273.36 106.956 273.809 106.77 274.139 106.439C274.47 106.109 274.656 105.66 274.656 105.192C274.658 104.959 274.613 104.729 274.525 104.513C274.437 104.298 274.308 104.102 274.144 103.937C273.98 103.772 273.785 103.641 273.57 103.551C273.355 103.462 273.125 103.416 272.892 103.416Z" fill="#E6E6E6"/>
<path d="M261.372 109.5H79.2839V297.396H261.372V109.5Z" fill="#F0F0F0"/>
<path d="M250.788 286.824V120.084L89.8561 120.084V286.824H250.788Z" fill="#FAFAFA"/>
<path d="M126.384 286.824L188.472 120.072H217.776L155.7 286.824H126.384Z" fill="white"/>
<path d="M161.988 286.824L224.076 120.072H235.5L173.412 286.824H161.988Z" fill="white"/>
<path d="M250.788 286.812V120.072H249.444V286.812H250.788Z" fill="#E6E6E6"/>
<g opacity="0.6">
<path opacity="0.6" d="M85.4881 369.684H63.1321L66.6721 100.26H89.0401L85.4881 369.684Z" fill="#F0F0F0"/>
<path opacity="0.6" d="M94.2001 369.684H76.7761L80.3281 100.26H97.7401L94.2001 369.684Z" fill="#E6E6E6"/>
<path opacity="0.6" d="M107.844 369.684H85.488L89.04 100.26H111.396L107.844 369.684Z" fill="#F0F0F0"/>
<path opacity="0.6" d="M116.556 369.684H99.1321L102.684 100.26H120.108L116.556 369.684Z" fill="#E6E6E6"/>
<path opacity="0.6" d="M130.2 369.684H107.844L111.396 100.26H133.752L130.2 369.684Z" fill="#F0F0F0"/>
</g>
<g opacity="0.6">
<path opacity="0.6" d="M257.676 369.684H270.312L272.004 100.26H259.368L257.676 369.684Z" fill="#F0F0F0"/>
<path opacity="0.6" d="M252.756 369.684H262.596L264.3 100.26H254.448L252.756 369.684Z" fill="#E6E6E6"/>
<path opacity="0.6" d="M245.04 369.684H257.676L259.368 100.26H246.732L245.04 369.684Z" fill="#F0F0F0"/>
<path opacity="0.6" d="M240.12 369.684H249.96L251.664 100.26H241.812L240.12 369.684Z" fill="#E6E6E6"/>
<path opacity="0.6" d="M232.404 369.684H245.04L246.732 100.26H234.096L232.404 369.684Z" fill="#F0F0F0"/>
</g>
<path d="M300 513.072C428.499 513.072 532.668 506.99 532.668 499.488C532.668 491.986 428.499 485.904 300 485.904C171.501 485.904 67.332 491.986 67.332 499.488C67.332 506.99 171.501 513.072 300 513.072Z" fill="#F5F5F5"/>
<path d="M341.544 142.548C334.344 132.804 336.012 124.296 341.544 118.176C348.444 110.496 359.712 110.556 367.224 114.48C378.984 120.612 381.516 147.48 361.872 151.272C354.902 148.839 348.109 145.924 341.544 142.548Z" fill="#263238"/>
<path d="M364.932 116.172C372.132 111.936 370.128 103.716 376.632 99.372C385.68 93.372 405.18 95.976 399.084 110.976C392.988 125.976 414.684 126.84 408.384 141.744C402.084 156.648 383.784 165.744 379.08 144.144C375.564 127.956 390.504 107.1 378.444 109.344C370.92 110.736 368.412 118.476 368.412 118.476L364.932 116.172Z" fill="#263238"/>
<path d="M347.04 179.7C346.056 182.424 344.988 184.896 343.848 187.452C342.708 190.008 341.448 192.468 340.128 194.928C337.471 200.09 334.133 204.873 330.204 209.148C329.081 210.345 327.847 211.434 326.52 212.4C325.208 213.331 323.809 214.135 322.344 214.8C319.645 216.008 316.83 216.941 313.944 217.584C308.475 218.847 302.876 219.455 297.264 219.396C296.634 219.386 296.03 219.147 295.562 218.726C295.095 218.304 294.796 217.727 294.721 217.101C294.646 216.476 294.801 215.845 295.156 215.324C295.511 214.804 296.042 214.43 296.652 214.272H296.772C301.792 213.098 306.734 211.611 311.568 209.82C313.841 208.973 316.04 207.942 318.144 206.736C319.081 206.199 319.972 205.585 320.808 204.9C321.617 204.224 322.364 203.477 323.04 202.668C324.586 200.842 325.978 198.891 327.204 196.836C328.5 194.712 329.748 192.516 330.9 190.224C333.18 185.688 335.34 180.84 337.2 176.184V176.112C337.693 174.818 338.68 173.774 339.944 173.208C341.208 172.642 342.644 172.601 343.938 173.094C345.232 173.587 346.276 174.574 346.842 175.838C347.408 177.102 347.449 178.538 346.956 179.832L347.04 179.7Z" fill="#B55B52"/>
<path d="M345.48 170.82C335.568 171.948 330.108 186.816 330.108 186.816L340.26 201.12C340.26 201.12 352.26 187.524 353.304 181.452C354.348 175.2 352.8 169.968 345.48 170.82Z" fill="#263238"/>
<path opacity="0.2" d="M340.056 179.916C343.38 177.828 347.004 178.98 350.088 182.856C350.726 183.968 351.153 185.189 351.348 186.456C348.348 191.892 340.248 201.108 340.248 201.108L335.604 194.568C335.256 190.704 337.908 181.2 340.056 179.916Z" fill="black"/>
<path d="M299.076 214.8L291.6 210.768L291.396 220.512C291.396 220.512 296.388 221.592 299.688 218.928L299.076 214.8Z" fill="#B55B52"/>
<path d="M284.1 211.104L285.408 219.06L291.444 220.512L291.648 210.768L284.1 211.104Z" fill="#B55B52"/>
<path d="M321.78 193.572L315.228 188.196L270.588 255.264L277.2 260.64C284.736 266.808 300.828 256.8 313.2 238.272C325.572 219.744 329.316 199.74 321.78 193.572Z" fill="#00856F"/>
<path opacity="0.1" d="M321.78 193.572L315.228 188.196L270.588 255.264L277.2 260.64C284.736 266.808 300.828 256.8 313.2 238.272C325.572 219.744 329.316 199.74 321.78 193.572Z" fill="black"/>
<path d="M307.72 231.1C319.629 212.276 322.654 192.823 314.477 187.65C306.3 182.476 290.017 193.542 278.108 212.366C266.199 231.19 263.174 250.644 271.351 255.817C279.528 260.99 295.811 249.924 307.72 231.1Z" fill="#00856F"/>
<path d="M284.628 232.728L290.628 223.68C290.018 221.825 289.989 219.828 290.544 217.956C291.231 215.596 292.297 213.362 293.7 211.344C294.965 209.304 296.621 207.535 298.572 206.136C300.24 205.032 301.668 204.768 302.832 205.344L304.296 203.16L305.568 204.204L304.128 206.4C304.519 207.011 304.78 207.696 304.896 208.412C305.011 209.129 304.979 209.861 304.8 210.564C304.333 212.682 303.522 214.708 302.4 216.564L299.7 215.46C300.54 214.18 300.959 212.67 300.9 211.14L295.272 219.54C296.047 221.443 296.206 223.541 295.728 225.54C294.199 230.337 291.274 234.569 287.328 237.696C285.504 238.96 283.884 239.324 282.468 238.788L281.016 240.972L279.744 239.928L281.124 237.852C280.694 237.138 280.418 236.343 280.313 235.516C280.207 234.69 280.275 233.851 280.512 233.052C281.161 230.376 282.23 227.821 283.68 225.48L286.44 226.8C285.828 227.879 285.338 229.022 284.976 230.208C284.715 231.022 284.597 231.874 284.628 232.728ZM299.724 210C299.055 210.066 298.424 210.343 297.924 210.792C296.532 211.943 295.502 213.473 294.96 215.196C294.712 215.929 294.642 216.711 294.756 217.476L299.724 210ZM285.708 234C286.077 234.056 286.453 234.029 286.81 233.921C287.167 233.813 287.496 233.627 287.772 233.376C289.488 232.04 290.746 230.203 291.372 228.12C291.612 227.286 291.591 226.398 291.312 225.576L285.708 234Z" fill="white"/>
<path opacity="0.1" d="M313.26 210.456C314.148 204.576 313.26 199.86 310.476 197.544C304.344 192.516 291.276 200.676 281.184 215.76C276.942 221.973 273.811 228.875 271.932 236.16C272.964 229.272 276.384 220.788 281.796 212.64C291.84 197.556 304.956 189.408 311.088 194.424C314.4 197.124 315 203.136 313.26 210.456Z" fill="black"/>
<path d="M400.26 434.172L390.18 435.132L385.044 411.648L395.124 410.688L400.26 434.172Z" fill="#B55B52"/>
<path d="M456.408 419.652L447.036 423.324L438 401.052L447.372 397.38L456.408 419.652Z" fill="#B55B52"/>
<path d="M444.312 418.716L454.584 413.604C454.761 413.516 454.963 413.495 455.155 413.543C455.346 413.592 455.514 413.707 455.628 413.868L460.836 421.416C460.968 421.611 461.056 421.833 461.095 422.066C461.134 422.298 461.122 422.536 461.06 422.764C460.999 422.992 460.889 423.203 460.739 423.385C460.588 423.566 460.4 423.713 460.188 423.816C456.588 425.544 455.004 426.396 450.48 428.616C447.696 429.996 441.492 433.248 437.652 435.156C433.812 437.064 431.724 433.368 433.152 432.228C439.548 427.128 441.66 423.276 443.064 420.048C443.311 419.471 443.753 419 444.312 418.716Z" fill="#263238"/>
<path d="M388.212 429.9H400.332C400.548 429.901 400.759 429.973 400.93 430.105C401.102 430.238 401.225 430.423 401.28 430.632L403.92 440.232C403.986 440.459 403.998 440.697 403.954 440.929C403.911 441.161 403.813 441.38 403.669 441.567C403.525 441.754 403.34 441.904 403.127 442.006C402.914 442.108 402.68 442.158 402.444 442.152C398.208 442.08 396.18 442.152 390.852 442.152H374.58C370.152 442.152 369.18 437.664 370.98 437.268C379.2 435.444 383.94 432.936 386.472 430.548C386.946 430.114 387.57 429.882 388.212 429.9Z" fill="#263238"/>
<path opacity="0.2" d="M385.056 411.66L387.696 423.756H397.992L395.136 410.688L385.056 411.66Z" fill="black"/>
<path opacity="0.2" d="M447.372 397.392L438 401.064L442.668 412.536L452.028 408.864L447.372 397.392Z" fill="black"/>
<path d="M376.248 160.68C384.264 159.756 389.448 163.572 389.808 171.576C390.864 199.788 393.984 206.28 398.7 220.872L358.728 231.996C344.52 201.228 339.528 186.72 337.944 179.892C337.614 178.305 337.814 176.654 338.512 175.191C339.209 173.728 340.367 172.534 341.808 171.792C352.448 165.865 364.15 162.089 376.248 160.68Z" fill="#263238"/>
<path d="M364.092 141.768C364.572 147.924 366.168 158.568 371.292 161.388C371.292 161.388 370.536 165.192 357.288 177.876C349.116 170.988 353.292 166.368 353.292 166.368C359.376 162.996 357.948 158.604 355.548 154.368L364.092 141.768Z" fill="#B55B52"/>
<path opacity="0.2" d="M363.168 143.148C364.042 146.647 364.165 150.291 363.528 153.84C363.072 156.24 360.456 158.064 357.528 159.108C357.129 157.441 356.473 155.846 355.584 154.38L363.168 143.148Z" fill="black"/>
<path d="M366.444 130.14C368.4 140.088 369.444 144.252 365.82 150.54C360.36 160.044 347.712 160.284 342.816 151.116C338.412 142.872 335.94 127.992 344.508 121.584C346.392 120.164 348.608 119.25 350.946 118.928C353.283 118.605 355.664 118.886 357.862 119.744C360.06 120.601 362.003 122.006 363.505 123.826C365.007 125.646 366.019 127.819 366.444 130.14Z" fill="#B55B52"/>
<path d="M371.64 136.2C371.786 137.159 371.74 138.138 371.506 139.079C371.271 140.02 370.852 140.906 370.272 141.684C368.712 143.76 366.36 142.752 365.472 140.484C364.68 138.42 364.524 134.844 366.732 133.596C367.215 133.331 367.757 133.19 368.307 133.186C368.858 133.183 369.402 133.316 369.888 133.574C370.375 133.832 370.79 134.208 371.096 134.666C371.402 135.124 371.589 135.651 371.64 136.2Z" fill="#B55B52"/>
<path d="M357.72 124.872C357.348 128.676 360.396 135.18 366.12 136.692C372.048 129.876 368.136 120.528 362.688 120.336C357.24 120.144 357.72 124.872 357.72 124.872Z" fill="#263238"/>
<path d="M349.728 114.504C340.98 114.9 331.596 118.8 334.848 132.504C342.48 130.908 363.72 128.532 365.352 123.084C363.204 116.088 355.464 114.24 349.728 114.504Z" fill="#263238"/>
<path d="M358.728 231.996C358.728 231.996 356.4 312.732 362.892 343.2C369.624 374.904 384.828 420.216 384.828 420.216L399.108 419.292C399.108 419.292 389.88 360.048 387.108 335.604C383.196 301.908 388.056 223.824 388.056 223.824L358.728 231.996Z" fill="#00856F"/>
<path opacity="0.2" d="M378.84 257.244C379.488 249.924 385.008 251.328 386.244 261.24C385.704 276.84 385.32 294.948 385.632 310.8C379.68 299.172 377.364 273.9 378.84 257.244Z" fill="black"/>
<path d="M400.92 420.216L383.724 421.38L381.336 413.316L399.948 411.348L400.92 420.216Z" fill="#263238"/>
<path d="M372.828 228.072C372.828 228.072 384.996 295.752 401.52 332.172C414.864 361.584 439.044 408.972 439.044 408.972L452.16 404.064C452.16 404.064 431.652 350.268 424.236 329.58C405.768 277.98 415.836 246.66 398.7 220.872L372.828 228.072Z" fill="#00856F"/>
<path d="M453.708 405.312L438.576 410.58L434.268 402.828L452.28 398.364L453.708 405.312Z" fill="#263238"/>
<path d="M398.64 218.4L401.448 221.484C401.664 221.724 401.448 222.096 400.944 222.216L359.028 233.892C358.668 233.988 358.32 233.892 358.236 233.676L356.88 230.196C356.784 229.956 357.036 229.656 357.432 229.548L397.908 218.28C398.029 218.233 398.161 218.219 398.29 218.24C398.419 218.261 398.54 218.317 398.64 218.4Z" fill="#263238"/>
<path d="M394.464 224.4L395.556 224.088C395.772 224.028 395.904 223.872 395.844 223.74L394.044 219.24C394.044 219.108 393.78 219.048 393.564 219.108L392.472 219.408C392.256 219.408 392.124 219.624 392.172 219.756L393.984 224.268C394.032 224.4 394.248 224.46 394.464 224.4Z" fill="#00856F"/>
<path d="M362.184 233.376L363.276 233.076C363.48 233.076 363.624 232.86 363.564 232.728L361.764 228.228C361.764 228.096 361.488 228.036 361.272 228.096L360.192 228.396C359.976 228.396 359.844 228.612 359.892 228.744L361.692 233.256C361.752 233.388 361.968 233.436 362.184 233.376Z" fill="#00856F"/>
<path d="M378.324 228.888L379.416 228.588C379.632 228.528 379.764 228.372 379.704 228.24L377.904 223.728C377.904 223.596 377.628 223.536 377.412 223.596L376.332 223.896C376.116 223.896 375.984 224.124 376.032 224.256L377.844 228.756C377.892 228.888 378.108 228.948 378.324 228.888Z" fill="#00856F"/>
<path d="M352.308 136.8C352.512 137.604 352.308 138.36 351.744 138.492C351.18 138.624 350.628 138.096 350.424 137.292C350.22 136.488 350.424 135.744 350.988 135.6C351.552 135.456 352.104 135.972 352.308 136.8Z" fill="#263238"/>
<path d="M343.296 139.128C343.512 139.92 343.296 140.676 342.732 140.82C342.168 140.964 341.616 140.412 341.412 139.62C341.208 138.828 341.412 138.06 341.976 137.928C342.54 137.796 343.092 138.324 343.296 139.128Z" fill="#263238"/>
<path d="M342.216 137.916L340.164 137.856C340.164 137.856 341.532 139.104 342.216 137.916Z" fill="#263238"/>
<path d="M346.044 139.872C345.809 141.876 345.3 143.838 344.532 145.704C345.014 145.888 345.53 145.965 346.044 145.927C346.558 145.89 347.058 145.74 347.508 145.488L346.044 139.872Z" fill="#A02724"/>
<path d="M351.036 147.9C350.99 147.892 350.947 147.871 350.913 147.839C350.879 147.807 350.855 147.765 350.844 147.72C350.835 147.69 350.832 147.659 350.836 147.628C350.839 147.596 350.85 147.567 350.865 147.539C350.881 147.512 350.902 147.489 350.927 147.471C350.953 147.452 350.981 147.439 351.012 147.432C352.01 147.196 352.937 146.727 353.719 146.064C354.502 145.4 355.116 144.562 355.512 143.616C355.521 143.585 355.537 143.556 355.558 143.531C355.579 143.506 355.605 143.485 355.634 143.471C355.663 143.456 355.695 143.448 355.728 143.446C355.761 143.444 355.793 143.449 355.824 143.46C355.882 143.482 355.931 143.525 355.96 143.58C355.988 143.635 355.996 143.7 355.98 143.76C355.566 144.782 354.915 145.69 354.08 146.41C353.246 147.13 352.251 147.641 351.18 147.9C351.133 147.914 351.083 147.914 351.036 147.9Z" fill="#263238"/>
<path d="M354.072 133.2C353.986 133.189 353.907 133.151 353.844 133.092C353.378 132.702 352.826 132.429 352.233 132.295C351.64 132.162 351.024 132.171 350.436 132.324C350.313 132.362 350.181 132.351 350.066 132.292C349.952 132.234 349.865 132.134 349.824 132.012C349.801 131.952 349.791 131.889 349.794 131.825C349.798 131.761 349.814 131.699 349.842 131.641C349.87 131.584 349.909 131.533 349.958 131.491C350.006 131.45 350.063 131.419 350.124 131.4C350.866 131.198 351.646 131.178 352.398 131.341C353.15 131.504 353.852 131.845 354.444 132.336C354.524 132.404 354.58 132.496 354.604 132.599C354.628 132.701 354.619 132.809 354.577 132.905C354.536 133.002 354.464 133.083 354.373 133.136C354.282 133.189 354.177 133.211 354.072 133.2Z" fill="#263238"/>
<path d="M337.932 136.056H337.836C337.776 136.036 337.721 136.004 337.673 135.962C337.625 135.92 337.586 135.869 337.559 135.812C337.531 135.756 337.514 135.694 337.51 135.63C337.507 135.567 337.515 135.504 337.536 135.444C337.77 134.711 338.176 134.045 338.721 133.502C339.267 132.959 339.934 132.555 340.668 132.324C340.73 132.308 340.794 132.304 340.857 132.313C340.92 132.322 340.98 132.343 341.035 132.375C341.089 132.407 341.137 132.45 341.175 132.501C341.213 132.552 341.241 132.61 341.256 132.672C341.285 132.798 341.264 132.93 341.196 133.04C341.129 133.15 341.021 133.229 340.896 133.26C340.326 133.455 339.811 133.783 339.393 134.217C338.976 134.651 338.668 135.179 338.496 135.756C338.455 135.866 338.375 135.958 338.271 136.013C338.167 136.069 338.046 136.084 337.932 136.056Z" fill="#263238"/>
<path d="M384.9 179.568C381.78 186 378.54 192.312 375.12 198.588C373.416 201.732 371.712 204.876 369.9 207.972C368.088 211.068 366.3 214.176 364.152 217.284C363.66 218.052 363.048 218.868 362.472 219.684L362.256 219.972L362.148 220.128L361.968 220.356C361.716 220.668 361.464 220.932 361.212 221.196C360.753 221.661 360.26 222.09 359.736 222.48C358.008 223.744 356.13 224.788 354.144 225.588C350.64 227.003 347.029 228.135 343.344 228.972C336.29 230.603 329.127 231.721 321.912 232.32L321.096 227.208C324.444 226.32 327.852 225.384 331.2 224.412C334.548 223.44 337.872 222.408 341.112 221.28C344.267 220.217 347.349 218.951 350.34 217.488C351.601 216.866 352.788 216.106 353.88 215.22C354.059 215.072 354.223 214.907 354.372 214.728C354.415 214.675 354.456 214.618 354.492 214.56L354.756 214.152C355.176 213.492 355.608 212.868 356.04 212.124C357.744 209.256 359.424 206.184 361.056 203.112L365.916 193.788L375.516 174.972L384.9 179.568Z" fill="#B55B52"/>
<path d="M324.384 227.256L317.316 224.544L317.916 234.516C317.916 234.516 323.472 234.516 326.04 231.096L324.384 227.256Z" fill="#B55B52"/>
<path d="M311.76 224.832L310.248 232.164L317.916 234.516L317.316 224.544L311.76 224.832Z" fill="#B55B52"/>
<path d="M376.2 165.84C372.252 167.652 367.668 184.056 367.668 184.056L384.768 186C384.768 186 388.08 178.032 387.408 173.94C386.4 167.4 380.7 163.776 376.2 165.84Z" fill="#263238"/>
<path d="M439.2 421.644C439.134 421.531 439.081 421.41 439.044 421.284C438.988 421.15 438.97 421.003 438.991 420.859C439.012 420.716 439.072 420.581 439.164 420.468C439.992 419.46 443.664 419.868 444.072 419.916C444.119 419.919 444.164 419.937 444.201 419.967C444.237 419.998 444.263 420.038 444.276 420.084C444.291 420.128 444.292 420.176 444.28 420.221C444.267 420.266 444.24 420.306 444.204 420.336C443.16 421.212 441.216 422.616 439.968 422.256C439.804 422.214 439.651 422.138 439.518 422.032C439.386 421.927 439.277 421.794 439.2 421.644ZM443.436 420.336C441.96 420.216 439.98 420.24 439.536 420.768C439.502 420.824 439.484 420.888 439.484 420.954C439.484 421.02 439.502 421.084 439.536 421.14C439.571 421.292 439.645 421.433 439.75 421.548C439.855 421.664 439.988 421.751 440.136 421.8C440.796 421.992 442.02 421.452 443.46 420.336H443.436Z" fill="#00856F"/>
<path d="M440.1 418.332C440.054 418.244 440.017 418.152 439.992 418.056C439.942 417.87 439.956 417.673 440.033 417.497C440.109 417.32 440.242 417.175 440.412 417.084C440.568 416.982 440.744 416.915 440.929 416.888C441.113 416.861 441.301 416.875 441.48 416.928C442.908 417.312 444.228 419.94 444.288 420.048C444.309 420.085 444.32 420.126 444.32 420.168C444.32 420.21 444.309 420.252 444.288 420.288C444.264 420.323 444.231 420.351 444.194 420.37C444.156 420.388 444.114 420.398 444.072 420.396C442.545 420.201 441.137 419.469 440.1 418.332ZM443.592 419.784C443.1 418.92 442.188 417.612 441.348 417.384C441.238 417.348 441.121 417.339 441.007 417.355C440.892 417.372 440.783 417.415 440.688 417.48C440.424 417.648 440.424 417.804 440.46 417.912C440.64 418.608 442.416 419.58 443.628 419.832L443.592 419.784Z" fill="#00856F"/>
<path d="M382.8 431.892C381.961 431.96 381.121 431.763 380.4 431.328C380.21 431.191 380.055 431.011 379.949 430.802C379.843 430.593 379.787 430.362 379.788 430.128C379.771 430.001 379.79 429.872 379.843 429.755C379.896 429.638 379.981 429.539 380.088 429.468C381.18 428.724 385.308 430.596 386.088 430.98C386.135 431.002 386.174 431.038 386.2 431.083C386.226 431.128 386.237 431.18 386.232 431.232C386.225 431.282 386.203 431.328 386.169 431.365C386.134 431.402 386.089 431.426 386.04 431.436C384.979 431.701 383.893 431.854 382.8 431.892ZM380.868 429.804C380.701 429.794 380.535 429.832 380.388 429.912C380.388 429.912 380.292 429.996 380.304 430.14C380.307 430.297 380.347 430.452 380.42 430.591C380.493 430.731 380.597 430.851 380.724 430.944C381.432 431.484 383.124 431.556 385.284 431.148C383.901 430.479 382.424 430.025 380.904 429.804H380.868Z" fill="#00856F"/>
<path d="M386.1 431.484H386.004C384.636 430.932 381.876 428.712 382.032 427.572C382.032 427.32 382.236 427.008 382.86 426.936C385.26 426.648 386.292 431.028 386.34 431.208C386.347 431.252 386.343 431.297 386.329 431.339C386.314 431.381 386.289 431.418 386.256 431.448C386.209 431.477 386.155 431.489 386.1 431.484ZM383.088 427.38H382.92C382.668 427.38 382.536 427.488 382.512 427.608C382.428 428.268 384.336 430.008 385.728 430.776C385.404 429.732 384.54 427.38 383.088 427.38Z" fill="#00856F"/>
<path d="M351.228 135.6H349.164C349.164 135.6 350.544 136.8 351.228 135.6Z" fill="#263238"/>
<path d="M355.944 442.164H421.608C422.06 442.164 422.493 442.344 422.813 442.663C423.132 442.983 423.312 443.416 423.312 443.868V449.412H354.252V443.868C354.252 443.418 354.43 442.987 354.747 442.667C355.064 442.348 355.494 442.167 355.944 442.164Z" fill="#263238"/>
<path d="M423.9 467.76H354.84V474.996H423.9V467.76Z" fill="#263238"/>
<path opacity="0.5" d="M423.9 467.76H378.24V474.996H423.9V467.76Z" fill="black"/>
<path d="M384.888 449.4L377.124 498C377.059 498.4 376.855 498.763 376.547 499.027C376.24 499.29 375.849 499.437 375.444 499.44H371.64C371.394 499.44 371.151 499.386 370.928 499.283C370.705 499.18 370.507 499.029 370.347 498.842C370.188 498.655 370.071 498.436 370.004 498.2C369.937 497.963 369.922 497.715 369.96 497.472L377.652 449.352L384.888 449.4Z" fill="#263238"/>
<path opacity="0.5" d="M384.888 449.4L384.3 453.096H377.052L377.652 449.4H384.888Z" fill="black"/>
<path d="M361.488 449.4L353.724 498C353.659 498.4 353.454 498.763 353.147 499.027C352.84 499.29 352.449 499.437 352.044 499.44H348.24C347.994 499.44 347.751 499.386 347.528 499.283C347.305 499.18 347.107 499.029 346.947 498.842C346.788 498.655 346.67 498.436 346.604 498.2C346.537 497.963 346.522 497.715 346.56 497.472L354.252 449.352L361.488 449.4Z" fill="#263238"/>
<path d="M430.992 497.52L423.312 449.4H416.112L423.84 498C423.903 498.401 424.107 498.766 424.415 499.03C424.722 499.294 425.114 499.439 425.52 499.44H429.312C429.553 499.439 429.791 499.386 430.011 499.286C430.23 499.185 430.425 499.04 430.584 498.858C430.743 498.677 430.861 498.463 430.932 498.233C431.002 498.002 431.023 497.759 430.992 497.52Z" fill="#263238"/>
<path opacity="0.5" d="M423.9 453.096L423.312 449.4H416.064L416.652 453.096H423.9Z" fill="black"/>
<path d="M407.592 497.52L399.912 449.4H392.712L400.44 498C400.503 498.401 400.706 498.766 401.014 499.03C401.322 499.294 401.714 499.439 402.12 499.44H405.912C406.153 499.439 406.391 499.386 406.61 499.286C406.83 499.185 407.025 499.04 407.184 498.858C407.343 498.677 407.461 498.463 407.532 498.233C407.602 498.002 407.623 497.759 407.592 497.52Z" fill="#263238"/>
<path opacity="0.5" d="M407.592 497.52L399.912 449.4H392.712L400.44 498C400.503 498.401 400.706 498.766 401.014 499.03C401.322 499.294 401.714 499.439 402.12 499.44H405.912C406.153 499.439 406.391 499.386 406.61 499.286C406.83 499.185 407.025 499.04 407.184 498.858C407.343 498.677 407.461 498.463 407.532 498.233C407.602 498.002 407.623 497.759 407.592 497.52Z" fill="black"/>
<path opacity="0.5" d="M377.652 442.164H421.608C422.06 442.164 422.493 442.344 422.813 442.663C423.132 442.983 423.312 443.416 423.312 443.868V449.412H377.712V442.212L377.652 442.164Z" fill="black"/>
<path d="M174.936 492.876L184.548 475.236L150.168 445.104L147.48 492.876H174.936Z" fill="#00856F"/>
<path opacity="0.1" d="M174.936 492.876L184.548 475.236L150.168 445.104L147.48 492.876H174.936Z" fill="black"/>
<path d="M293.424 291.864C312.708 278.664 328.86 280.02 334.224 283.872C339.588 287.724 322.548 316.98 322.548 316.98C316.176 315.129 310.276 311.928 305.251 307.594C300.225 303.26 296.192 297.895 293.424 291.864Z" fill="#00856F"/>
<path opacity="0.2" d="M302.604 305.124C313.464 294.456 324.54 291.036 327.54 292.824C330.54 294.612 320.904 315.18 320.904 315.18C320.904 315.18 307.884 317.052 302.604 305.124Z" fill="black"/>
<path d="M125.868 333.24L124.776 332.688C127.791 326.755 131.337 321.108 135.372 315.816L136.344 316.56C132.36 321.796 128.854 327.378 125.868 333.24Z" fill="#00856F"/>
<path d="M120.156 346.8L118.956 346.404C119.868 343.728 120.9 341.052 122.028 338.46L123.156 338.952C122.076 341.496 121.056 344.136 120.156 346.8Z" fill="#00856F"/>
<path d="M344.532 380.1C344.532 439.68 299.676 487.968 234.924 487.968C170.172 487.968 117.684 439.68 117.684 380.1C117.684 320.52 170.172 272.232 234.924 272.232C299.676 272.232 344.532 320.52 344.532 380.1Z" fill="#00856F"/>
<path opacity="0.1" d="M219.3 476.544L214.608 486.36C218 486.912 221.444 487.312 224.94 487.56L219.3 476.544Z" fill="black"/>
<path d="M212.196 499.488L225.684 475.236L182.544 459.468L177.024 499.488H212.196Z" fill="#00856F"/>
<path d="M275.028 499.488L263.34 475.236L304.416 459.468L307.14 499.488H275.028Z" fill="#00856F"/>
<path opacity="0.2" d="M304.536 395.688C304.536 411.816 290.28 424.884 272.748 424.884C255.216 424.884 241.02 411.816 241.02 395.688C241.02 379.56 255.228 366.492 272.748 366.492C290.268 366.492 304.536 379.56 304.536 395.688Z" fill="black"/>
<path opacity="0.2" d="M262.212 405.24C265.188 405.24 267.6 400.749 267.6 395.208C267.6 389.667 265.188 385.176 262.212 385.176C259.236 385.176 256.824 389.667 256.824 395.208C256.824 400.749 259.236 405.24 262.212 405.24Z" fill="black"/>
<path opacity="0.4" d="M223.68 341.232C225.228 345.948 223.8 351.096 220.5 352.716C217.2 354.336 213.3 351.816 211.716 347.1C210.132 342.384 211.584 337.236 214.884 335.616C218.184 333.996 222.132 336.504 223.68 341.232Z" fill="black"/>
<path opacity="0.4" d="M307.2 341.448C306 346.164 307.476 351.252 310.452 352.8C313.428 354.348 316.788 351.78 317.964 347.052C319.14 342.324 317.688 337.248 314.712 335.7C311.736 334.152 308.4 336.72 307.2 341.448Z" fill="black"/>
<path opacity="0.2" d="M290.88 405.24C293.856 405.24 296.268 400.749 296.268 395.208C296.268 389.667 293.856 385.176 290.88 385.176C287.904 385.176 285.492 389.667 285.492 395.208C285.492 400.749 287.904 405.24 290.88 405.24Z" fill="black"/>
<path d="M200.652 290.88C179.76 273.576 161.052 272.232 154.596 275.376C148.14 278.52 164.928 312.444 164.928 312.444C164.928 312.444 187.848 311.1 200.652 290.88Z" fill="#00856F"/>
<path opacity="0.2" d="M188.892 303.336C177.432 290.136 165.048 284.64 161.436 286.008C157.824 287.376 166.98 310.8 166.98 310.8C166.98 310.8 181.74 315.048 188.892 303.336Z" fill="black"/>
<path opacity="0.4" d="M242.844 281.616H260.496C260.496 281.616 256.656 277.392 243.624 276.108C236.244 275.509 228.816 275.912 221.544 277.308C221.544 277.308 236.088 276.984 242.844 281.616Z" fill="black"/>
</svg>
