<svg width="280" height="209" viewBox="0 0 280 209" fill="none" xmlns="http://www.w3.org/2000/svg">
<path d="M280 183.344H0V183.484H280V183.344Z" fill="#EBEBEB"/>
<path d="M47.9246 188.675H29.3774V188.815H47.9246V188.675Z" fill="#EBEBEB"/>
<path d="M119.655 187.158H95.8384V187.298H119.655V187.158Z" fill="#EBEBEB"/>
<path d="M63.0897 190.641H52.3433V190.781H63.0897V190.641Z" fill="#EBEBEB"/>
<path d="M251.944 192.937H243.415V193.077H251.944V192.937Z" fill="#EBEBEB"/>
<path d="M238.426 192.937H219.223V193.077H238.426V192.937Z" fill="#EBEBEB"/>
<path d="M185.825 188.905H172.48V189.045H185.825V188.905Z" fill="#EBEBEB"/>
<path d="M132.72 158.368H24.5895C23.7424 158.367 22.9305 158.029 22.332 157.429C21.7336 156.83 21.3975 156.017 21.3975 155.17V3.1696C21.4048 2.32737 21.7442 1.52207 22.3419 0.928602C22.9395 0.335137 23.7472 0.00144278 24.5895 0H132.72C133.568 0 134.381 0.336889 134.981 0.936556C135.581 1.53622 135.917 2.34954 135.917 3.1976V155.17C135.917 156.018 135.581 156.832 134.981 157.431C134.381 158.031 133.568 158.368 132.72 158.368ZM24.5895 0.112C23.7795 0.113484 23.0032 0.436276 22.431 1.00953C21.8588 1.58278 21.5375 2.35964 21.5375 3.1696V155.17C21.5375 155.98 21.8588 156.757 22.431 157.33C23.0032 157.904 23.7795 158.227 24.5895 158.228H132.72C133.53 158.227 134.307 157.904 134.88 157.331C135.453 156.758 135.776 155.981 135.777 155.17V3.1696C135.776 2.35913 135.453 1.58228 134.88 1.00919C134.307 0.436095 133.53 0.113481 132.72 0.112H24.5895Z" fill="#EBEBEB"/>
<path d="M253.854 158.368H145.718C144.87 158.367 144.058 158.029 143.458 157.43C142.859 156.83 142.522 156.018 142.52 155.17V3.1696C142.529 2.32686 142.869 1.52156 143.468 0.928252C144.067 0.334941 144.875 0.00142704 145.718 0H253.854C254.695 0.00291452 255.501 0.33726 256.098 0.930568C256.694 1.52388 257.033 2.32834 257.04 3.1696V155.17C257.04 156.017 256.705 156.828 256.107 157.427C255.51 158.027 254.7 158.365 253.854 158.368ZM145.718 0.112C144.907 0.113481 144.13 0.436095 143.557 1.00919C142.984 1.58228 142.661 2.35913 142.66 3.1696V155.17C142.661 155.981 142.984 156.758 143.557 157.331C144.13 157.904 144.907 158.227 145.718 158.228H253.854C254.664 158.227 255.441 157.904 256.014 157.331C256.587 156.758 256.91 155.981 256.911 155.17V3.1696C256.91 2.35913 256.587 1.58228 256.014 1.00919C255.441 0.436095 254.664 0.113481 253.854 0.112H145.718Z" fill="#EBEBEB"/>
<path d="M231.123 180.466H244.597V97.3504H231.123V180.466Z" fill="#F0F0F0"/>
<path d="M161.235 183.338H243.219V180.471H161.235V183.338Z" fill="#F0F0F0"/>
<path d="M231.129 97.356H160.054V180.471H231.129V97.356Z" fill="#F5F5F5"/>
<path d="M228.704 140.633H162.479V155.473H228.704V140.633Z" fill="#F0F0F0"/>
<path d="M228.704 160.059H162.479V174.899H228.704V160.059Z" fill="#F0F0F0"/>
<path d="M169.042 141.758H222.141C222.506 141.758 222.802 141.463 222.802 141.098V140.386C222.802 140.021 222.506 139.726 222.141 139.726H169.042C168.677 139.726 168.381 140.021 168.381 140.386V141.098C168.381 141.463 168.677 141.758 169.042 141.758Z" fill="#F5F5F5"/>
<path d="M169.042 161.179H222.141C222.506 161.179 222.802 160.883 222.802 160.518V159.807C222.802 159.442 222.506 159.146 222.141 159.146H169.042C168.677 159.146 168.381 159.442 168.381 159.807V160.518C168.381 160.883 168.677 161.179 169.042 161.179Z" fill="#F5F5F5"/>
<path d="M228.704 101.937H162.479V116.777H228.704V101.937Z" fill="#F0F0F0"/>
<path d="M228.704 121.206H162.479V136.046H228.704V121.206Z" fill="#F0F0F0"/>
<path d="M169.042 103.062H222.141C222.506 103.062 222.802 102.767 222.802 102.402V101.69C222.802 101.325 222.506 101.03 222.141 101.03H169.042C168.677 101.03 168.381 101.325 168.381 101.69V102.402C168.381 102.767 168.677 103.062 169.042 103.062Z" fill="#F5F5F5"/>
<path d="M169.042 122.332H222.141C222.506 122.332 222.802 122.036 222.802 121.671V120.96C222.802 120.595 222.506 120.299 222.141 120.299H169.042C168.677 120.299 168.381 120.595 168.381 120.96V121.671C168.381 122.036 168.677 122.332 169.042 122.332Z" fill="#F5F5F5"/>
<path d="M126.835 121.257H118.771V183.344H126.835V121.257Z" fill="#F0F0F0"/>
<path d="M38.1025 183.344H118.771L118.771 121.257H38.1025L38.1025 183.344Z" fill="#F5F5F5"/>
<path d="M37.4641 177.89H109.514V144.682H37.4641V177.89Z" fill="#FAFAFA"/>
<path d="M37.4641 141.165H109.514V130.234H37.4641V141.165Z" fill="#FAFAFA"/>
<g style="mix-blend-mode:multiply" opacity="0.7">
<path d="M110.068 144.687H109.514V177.895H110.068V144.687Z" fill="#E6E6E6"/>
</g>
<g style="mix-blend-mode:multiply" opacity="0.7">
<path d="M110.068 130.228H109.514V141.159H110.068V130.228Z" fill="#E6E6E6"/>
</g>
<g style="mix-blend-mode:multiply" opacity="0.7">
<path d="M126.835 123.878H37.9233V125.283H126.835V123.878Z" fill="#E6E6E6"/>
</g>
<path d="M127.781 120.406H118.771V124.466H127.781V120.406Z" fill="#F0F0F0"/>
<path d="M37.1617 124.471L118.771 124.471V120.411L37.1617 120.411V124.471Z" fill="#F5F5F5"/>
<path d="M46.435 80.2592L173.583 80.2592V14.0336L46.435 14.0336L46.435 80.2592Z" fill="#E6E6E6"/>
<path d="M38.349 11.4576H178.461C178.658 11.4606 178.846 11.5409 178.984 11.6813C179.123 11.8217 179.2 12.0109 179.2 12.208C179.199 12.4061 179.119 12.5955 178.978 12.735C178.838 12.8745 178.648 12.9528 178.45 12.9528H38.349C38.151 12.9528 37.961 12.8745 37.8204 12.735C37.6798 12.5955 37.6001 12.4061 37.5986 12.208C37.5986 12.009 37.6777 11.8181 37.8184 11.6774C37.9591 11.5367 38.15 11.4576 38.349 11.4576Z" fill="#E6E6E6"/>
<path d="M43.2321 80.2592L172.083 80.2592V14.0336L43.2321 14.0336V80.2592Z" fill="#F0F0F0"/>
<path d="M46.4295 80.2592H173.578V82.3816H44.2231L46.4295 80.2592Z" fill="#E6E6E6"/>
<path d="M37.8951 80.2592H166.751L164.545 82.3816H35.6943L37.8951 80.2592Z" fill="#F0F0F0"/>
<path d="M167.603 75.7848V18.5192L47.7121 18.5192V75.7848H167.603Z" fill="#FAFAFA"/>
<path d="M100.414 75.7792L74.1105 18.5136H61.6953L87.9985 75.7792H100.414Z" fill="white"/>
<path d="M85.3327 75.7792L59.0295 18.5136H54.1855L80.4887 75.7792H85.3327Z" fill="white"/>
<path d="M48.2832 75.7792V18.5136H47.712V75.7792H48.2832Z" fill="#E6E6E6"/>
<g opacity="0.4">
<path opacity="0.4" d="M167.547 64.764H175.258V10.1136H167.547V64.764Z" fill="#F0F0F0"/>
<path opacity="0.4" d="M164.545 64.764H170.554V10.1136H164.545V64.764Z" fill="#E6E6E6"/>
<path opacity="0.4" d="M159.841 64.764H167.552V10.1136H159.841V64.764Z" fill="#F0F0F0"/>
<path opacity="0.4" d="M156.833 64.764H162.842V10.1136H156.833V64.764Z" fill="#E6E6E6"/>
<path opacity="0.4" d="M152.124 64.764H159.835V10.1136H152.124V64.764Z" fill="#F0F0F0"/>
</g>
<g opacity="0.4">
<path opacity="0.4" d="M50.5795 64.764H55.0259L55.0259 10.1136H50.5795L50.5795 64.764Z" fill="#F0F0F0"/>
<path opacity="0.4" d="M48.8546 64.764H52.3154L52.3154 10.1136H48.8546L48.8546 64.764Z" fill="#E6E6E6"/>
<path opacity="0.4" d="M46.1332 64.764H50.5796L50.5796 10.1136H46.1332L46.1332 64.764Z" fill="#F0F0F0"/>
<path opacity="0.4" d="M44.4083 64.764H47.8691L47.8691 10.1136H44.4083L44.4083 64.764Z" fill="#E6E6E6"/>
<path opacity="0.4" d="M41.6923 64.764H46.1387L46.1387 10.1136H41.6923L41.6923 64.764Z" fill="#F0F0F0"/>
</g>
<path d="M198.811 73.3544H240.968V16.9736L198.811 16.9736V73.3544Z" fill="#E6E6E6"/>
<path d="M195.585 73.3544H239.893V16.9736L195.585 16.9736V73.3544Z" fill="#F5F5F5"/>
<path d="M236.18 20.6864H199.298V69.6472H236.18V20.6864Z" fill="white"/>
<path d="M207.43 43.8424C207.43 43.8424 207.693 51.4696 217.739 51.4696C227.786 51.4696 228.054 43.8424 228.054 43.8424H207.43Z" fill="#F0F0F0"/>
<path d="M226.973 37.6432C226.977 38.1273 226.849 38.6034 226.604 39.0208C226.365 38.603 226.019 38.2559 225.603 38.0144C225.186 37.773 224.714 37.6458 224.232 37.6458C223.751 37.6458 223.278 37.773 222.861 38.0144C222.445 38.2559 222.1 38.603 221.861 39.0208C221.614 38.6038 221.484 38.1278 221.485 37.6432C221.485 36.9154 221.774 36.2175 222.289 35.7029C222.804 35.1883 223.502 34.8992 224.229 34.8992C224.957 34.8992 225.655 35.1883 226.17 35.7029C226.684 36.2175 226.973 36.9154 226.973 37.6432Z" fill="#F0F0F0"/>
<path d="M213.998 37.6432C214.002 38.1274 213.874 38.6034 213.629 39.0208C213.39 38.6017 213.044 38.2533 212.627 38.011C212.21 37.7686 211.737 37.6409 211.254 37.6409C210.772 37.6409 210.298 37.7686 209.881 38.011C209.464 38.2533 209.119 38.6017 208.88 39.0208C208.669 38.6565 208.544 38.2486 208.516 37.8286C208.488 37.4085 208.557 36.9877 208.718 36.5986C208.878 36.2094 209.126 35.8625 209.443 35.5845C209.759 35.3066 210.135 35.1051 210.541 34.9957C210.948 34.8863 211.374 34.8719 211.787 34.9536C212.2 35.0353 212.588 35.2109 212.923 35.4668C213.257 35.7228 213.528 36.0522 213.714 36.4296C213.901 36.807 213.998 37.2222 213.998 37.6432Z" fill="#F0F0F0"/>
<path d="M189.946 82.9192C190.067 82.0537 190.031 81.1735 189.84 80.3208C189.669 79.5015 189.404 78.7047 189.05 77.9464C188.888 77.5614 188.701 77.1873 188.49 76.8264C188.295 76.4585 188.08 76.1014 187.846 75.7568C187.606 75.4152 187.393 75.0512 187.141 74.7152L186.362 73.7184C186.107 73.3783 185.832 73.053 185.539 72.744C185.259 72.4192 184.979 72.0888 184.694 71.7752C184.083 71.1648 183.518 70.5096 182.89 69.8936C182.263 69.2776 181.664 68.6392 181.026 68.0176C180.387 67.396 179.743 66.7688 179.144 66.0632C179.995 66.3941 180.829 66.7679 181.642 67.1832C182.442 67.6221 183.218 68.1044 183.966 68.628C184.356 68.8822 184.73 69.1609 185.086 69.4624C185.444 69.7536 185.791 70.056 186.138 70.3528C186.814 70.9911 187.448 71.6719 188.037 72.3912C189.256 73.8545 190.144 75.5642 190.641 77.4032C190.882 78.3348 190.965 79.3001 190.887 80.2592C190.828 81.2162 190.502 82.1376 189.946 82.9192Z" fill="#E6E6E6"/>
<path d="M204.77 80.2648C204.104 79.6535 203.604 78.8833 203.317 78.0264C203.031 77.1694 202.966 76.2536 203.129 75.3648C203.5 73.5598 204.443 71.9223 205.817 70.6944C206.142 70.3864 206.495 70.1344 206.836 69.86C207.169 69.58 207.525 69.3289 207.9 69.1096C208.27 68.8912 208.639 68.6728 209.02 68.4656C209.211 68.3648 209.39 68.2528 209.58 68.1632L210.168 67.9168C210.56 67.7544 210.952 67.5976 211.35 67.452L211.943 67.2336C212.139 67.1664 212.347 67.116 212.554 67.0656C213.369 66.853 214.195 66.6848 215.029 66.5616C214.363 67.1216 213.668 67.5528 212.985 68.0064C212.632 68.2136 212.302 68.4544 211.971 68.6896C211.641 68.9248 211.305 69.1488 210.969 69.3672C210.28 69.7816 209.692 70.308 209.043 70.7504C208.725 70.9732 208.424 71.2184 208.141 71.484C207.85 71.736 207.536 71.96 207.267 72.2288C206.172 73.2017 205.307 74.4071 204.736 75.7568C204.666 75.9231 204.612 76.0956 204.574 76.272C204.535 76.4456 204.479 76.6192 204.439 76.7984C204.377 77.1683 204.349 77.5433 204.355 77.9184C204.361 78.7182 204.501 79.5114 204.77 80.2648Z" fill="#E6E6E6"/>
<path d="M204.092 80.2648C203.515 79.5396 203.073 78.7163 202.787 77.8344C202.648 77.3864 202.538 76.93 202.457 76.468C202.418 76.2384 202.384 76.0032 202.35 75.768C202.317 75.5328 202.35 75.2976 202.35 75.0568C202.325 73.1303 202.814 71.2319 203.767 69.5576L204.529 68.3536C204.82 67.9784 205.134 67.6256 205.442 67.2728L205.906 66.7464L206.433 66.2872C206.786 65.9792 207.144 65.6824 207.497 65.3912C208.25 64.8686 209.031 64.3881 209.838 63.952C210.665 63.5768 211.512 63.2459 212.374 62.9608C211.742 63.6328 211.081 64.2152 210.426 64.7976C209.77 65.38 209.194 66.0296 208.6 66.6344C208.326 66.9592 208.04 67.2784 207.766 67.5864L207.34 68.0512L206.976 68.5552C206.735 68.8912 206.472 69.2104 206.237 69.5464L205.604 70.5936C204.803 72.0055 204.26 73.5492 204.002 75.152C203.729 76.8481 203.759 78.5794 204.092 80.2648Z" fill="#E6E6E6"/>
<path d="M190.753 81.2C191.279 79.24 191.873 77.3472 192.405 75.46C192.937 73.5728 193.491 71.7024 193.99 69.8264C194.488 67.9504 194.897 66.0576 195.261 64.1536C195.625 62.2496 195.821 60.3176 195.989 58.2848C196.655 60.2219 196.968 62.2628 196.913 64.3104C196.84 66.3505 196.545 68.3766 196.034 70.3528C195.514 72.3124 194.817 74.2206 193.951 76.0536C193.097 77.8924 192.024 79.6206 190.753 81.2Z" fill="#E6E6E6"/>
<path d="M191.414 80.8864C192.237 78.9488 193.127 77.1008 194.001 75.2528C194.874 73.4048 195.759 71.5792 196.605 69.7424C197.45 67.9056 198.257 66.0576 199.013 64.1816C199.769 62.3056 200.418 60.4016 201.051 58.3912C201.248 60.4963 201.095 62.6194 200.598 64.6744C200.099 66.7211 199.403 68.7147 198.52 70.6272C197.641 72.5239 196.609 74.3462 195.434 76.076C194.274 77.8215 192.926 79.4346 191.414 80.8864Z" fill="#E6E6E6"/>
<path d="M188.832 83.3C190.07 81.62 191.346 79.996 192.612 78.3888C193.878 76.7816 195.149 75.2024 196.381 73.6008C197.613 71.9992 198.817 70.3752 199.97 68.7176C201.124 67.06 202.21 65.3576 203.252 63.5264C202.972 65.6228 202.347 67.6587 201.404 69.552C200.458 71.4345 199.333 73.2217 198.044 74.8888C196.761 76.5398 195.347 78.0848 193.816 79.5088C192.299 80.9518 190.628 82.2232 188.832 83.3Z" fill="#E6E6E6"/>
<path d="M192.713 80.5336C193.922 79.016 195.138 77.5824 196.33 76.132C197.523 74.6816 198.677 73.2424 199.802 71.7752C200.928 70.308 201.981 68.8016 203.006 67.256C204.03 65.7104 204.921 64.092 205.89 62.3952C205.747 64.3445 205.268 66.2544 204.473 68.04C203.674 69.8211 202.671 71.5031 201.482 73.052C200.302 74.589 198.972 76.0053 197.512 77.28C196.065 78.5746 194.451 79.6689 192.713 80.5336Z" fill="#E6E6E6"/>
<path d="M189.616 82.32C190.309 80.9315 190.64 79.3906 190.579 77.84C190.487 76.3743 190.107 74.9413 189.459 73.6232L189.246 73.108L188.972 72.6096L188.412 71.6072C187.992 70.9688 187.606 70.2968 187.169 69.6416C186.732 68.9864 186.284 68.3368 185.819 67.6816C185.354 67.0264 184.867 66.3768 184.436 65.6432C185.17 66.0378 185.879 66.4773 186.558 66.9592C187.221 67.4639 187.854 68.0081 188.451 68.5888C188.753 68.8835 189.036 69.1978 189.297 69.5296C189.566 69.8544 189.857 70.1848 190.092 70.5208L190.775 71.6128C190.882 71.7976 190.994 71.9824 191.1 72.1728L191.363 72.7664C191.546 73.1649 191.703 73.5745 191.834 73.9928C191.946 74.4184 192.063 74.844 192.153 75.2752C192.242 75.7064 192.248 76.1656 192.276 76.608C192.304 77.0504 192.231 77.5096 192.186 77.9464C192.082 78.8129 191.799 79.6485 191.357 80.401C190.915 81.1535 190.322 81.8068 189.616 82.32Z" fill="#E6E6E6"/>
<path d="M190.792 80.276C191.317 78.7056 191.674 77.0836 191.856 75.4376C192.031 73.9031 191.917 72.3494 191.52 70.8568C191.327 70.1228 191.053 69.4128 190.702 68.74C190.545 68.3872 190.321 68.068 190.142 67.7264C189.963 67.3848 189.722 67.06 189.476 66.752C188.461 65.4346 187.353 64.1919 186.161 63.0336C187.861 63.5372 189.42 64.4308 190.713 65.6432C191.385 66.2648 191.969 66.9751 192.449 67.7544C192.692 68.1486 192.909 68.5583 193.099 68.9808C193.282 69.4108 193.437 69.8523 193.564 70.3024C194.043 72.0947 194.015 73.9846 193.485 75.7624C192.997 77.4761 192.068 79.0322 190.792 80.276Z" fill="#E6E6E6"/>
<path d="M193.895 78.7752L203.818 69.2496L203.42 78.5904L193.895 78.7752Z" fill="#E6E6E6"/>
<path d="M183.042 77.7616H209.412L205.962 97.356H186.497L183.042 77.7616Z" fill="#F5F5F5"/>
<path d="M199.517 77.7616H209.412L205.962 97.356H200.76L199.517 77.7616Z" fill="#EBEBEB"/>
<path d="M140 208.634C199.966 208.634 248.579 205.795 248.579 202.294C248.579 198.793 199.966 195.955 140 195.955C80.0341 195.955 31.4219 198.793 31.4219 202.294C31.4219 205.795 80.0341 208.634 140 208.634Z" fill="#F5F5F5"/>
<path d="M219.517 189.018L219.099 192.024L219.654 192.101L220.072 189.095L219.517 189.018Z" fill="#00856F"/>
<path d="M221.753 172.892L220.041 185.205L220.595 185.282L222.308 172.969L221.753 172.892Z" fill="#00856F"/>
<path d="M221.2 166.802H187.488L190.96 191.822C191.342 194.577 192.707 197.1 194.804 198.926C196.9 200.752 199.587 201.757 202.367 201.757H206.321C209.102 201.757 211.788 200.752 213.885 198.926C215.982 197.1 217.347 194.577 217.728 191.822L221.2 166.802Z" fill="#00856F"/>
<path d="M204.316 168.739C213.625 168.739 221.172 167.872 221.172 166.802C221.172 165.732 213.625 164.864 204.316 164.864C195.007 164.864 187.46 165.732 187.46 166.802C187.46 167.872 195.007 168.739 204.316 168.739Z" fill="#263238"/>
<path d="M209.658 156.307C199.668 154.196 203.498 134.204 210.129 119.302C216.849 104.227 221.071 101.119 226.122 101.59C231.291 102.077 225.4 119.039 222.869 129.511C220.337 139.983 221.25 158.76 209.658 156.307Z" fill="#00856F"/>
<path opacity="0.4" d="M209.658 156.307C199.668 154.196 203.498 134.204 210.129 119.302C216.849 104.227 221.071 101.119 226.122 101.59C231.291 102.077 225.4 119.039 222.869 129.511C220.337 139.983 221.25 158.76 209.658 156.307Z" fill="white"/>
<path d="M208.88 167.35C208.816 167.35 208.755 167.325 208.71 167.28C208.665 167.235 208.639 167.173 208.639 167.11C208.746 149.318 213.119 123.211 220.959 109.883C220.992 109.827 221.046 109.786 221.109 109.769C221.172 109.752 221.239 109.761 221.295 109.794C221.349 109.827 221.388 109.88 221.404 109.942C221.419 110.003 221.41 110.069 221.379 110.124C213.567 123.385 209.238 149.38 209.138 167.11C209.137 167.142 209.13 167.175 209.116 167.205C209.103 167.235 209.083 167.262 209.059 167.284C209.035 167.307 209.007 167.324 208.976 167.335C208.946 167.347 208.913 167.352 208.88 167.35Z" fill="#263238"/>
<path d="M208.729 138.32C206.892 139.608 204.971 139.804 203.801 141.053C203.005 148.075 204.03 153.832 208.068 155.786C209.58 154.263 209.882 144.144 208.729 138.32Z" fill="#263238"/>
<path d="M208.634 127.736C208.292 138.51 213.041 156.694 201.191 156.666C190.977 156.666 190.613 136.304 194.074 120.35C197.579 104.222 202.345 96.3816 207.385 95.8104C209.44 95.5808 210.106 98.8792 210.146 103.617C206.819 103.891 205.946 104.675 205.946 104.675C207.357 104.926 208.754 105.255 210.129 105.661C210 112.666 208.818 121.839 208.634 127.736Z" fill="#00856F"/>
<path d="M195.714 160.787C202.311 158.71 198.447 145.482 192.987 135.867C187.471 126.14 184.43 124.314 181.054 124.964C177.677 125.614 182.678 136.679 185.063 143.578C187.449 150.478 188.054 163.195 195.714 160.787Z" fill="#00856F"/>
<path opacity="0.4" d="M195.714 160.787C202.311 158.71 198.447 145.482 192.987 135.867C187.471 126.14 184.43 124.314 181.054 124.964C177.677 125.614 182.678 136.679 185.063 143.578C187.449 150.478 188.054 163.195 195.714 160.787Z" fill="white"/>
<path d="M196.929 168.263C196.87 168.262 196.812 168.24 196.768 168.199C196.724 168.159 196.695 168.104 196.689 168.045C195.468 156.106 190.865 138.88 184.744 130.48C184.725 130.454 184.711 130.425 184.703 130.393C184.695 130.362 184.694 130.329 184.699 130.297C184.705 130.265 184.716 130.235 184.734 130.208C184.751 130.18 184.773 130.157 184.8 130.138C184.825 130.119 184.854 130.105 184.885 130.098C184.916 130.09 184.948 130.089 184.98 130.094C185.011 130.1 185.041 130.111 185.068 130.128C185.095 130.146 185.118 130.168 185.136 130.194C191.296 138.684 195.944 156.016 197.17 168.017C197.175 168.048 197.173 168.08 197.165 168.111C197.156 168.142 197.142 168.17 197.122 168.195C197.102 168.22 197.077 168.24 197.049 168.255C197.02 168.269 196.989 168.278 196.957 168.28L196.929 168.263Z" fill="#263238"/>
<path d="M202.653 167.642C202.596 167.643 202.54 167.623 202.496 167.588C202.452 167.552 202.422 167.501 202.412 167.446C198.873 150.013 197.786 123.57 202.748 108.909C202.769 108.848 202.814 108.799 202.871 108.771C202.929 108.743 202.995 108.738 203.056 108.758C203.086 108.768 203.114 108.784 203.138 108.805C203.162 108.826 203.182 108.851 203.196 108.88C203.21 108.909 203.218 108.94 203.22 108.972C203.222 109.004 203.217 109.035 203.207 109.066C198.273 123.626 199.36 149.974 202.888 167.35C202.894 167.382 202.894 167.414 202.888 167.445C202.882 167.477 202.87 167.506 202.852 167.533C202.835 167.56 202.812 167.582 202.785 167.6C202.759 167.618 202.729 167.63 202.697 167.636L202.653 167.642Z" fill="#263238"/>
<path d="M216.261 121.436C216.219 121.435 216.177 121.424 216.14 121.403C216.103 121.383 216.071 121.354 216.048 121.318C216.016 121.262 216.008 121.196 216.023 121.134C216.039 121.071 216.078 121.017 216.132 120.982C218.596 119.515 222.146 119.392 222.292 119.386C222.35 119.395 222.403 119.425 222.442 119.469C222.48 119.514 222.501 119.571 222.501 119.63C222.501 119.689 222.48 119.746 222.442 119.791C222.403 119.835 222.35 119.865 222.292 119.874C222.258 119.874 218.719 119.997 216.367 121.402C216.335 121.421 216.298 121.433 216.261 121.436Z" fill="#263238"/>
<path d="M212.531 135.262C212.48 135.262 212.431 135.245 212.39 135.215C212.348 135.185 212.318 135.143 212.301 135.094C211.729 133.44 211.353 131.724 211.181 129.982C211.18 129.95 211.185 129.918 211.195 129.889C211.206 129.859 211.223 129.831 211.244 129.808C211.265 129.785 211.291 129.766 211.32 129.752C211.348 129.739 211.379 129.731 211.411 129.73C211.443 129.727 211.475 129.732 211.505 129.742C211.535 129.752 211.563 129.769 211.586 129.79C211.61 129.812 211.629 129.838 211.642 129.867C211.655 129.896 211.662 129.927 211.663 129.959C211.847 131.656 212.223 133.326 212.783 134.938C212.803 134.999 212.798 135.065 212.77 135.122C212.742 135.18 212.692 135.224 212.632 135.246L212.531 135.262Z" fill="#263238"/>
<path d="M62.9661 51.8112H61.1797V200.917H62.9661V51.8112Z" fill="#00856F"/>
<path d="M61.2358 101.959C60.9199 101.958 60.6173 101.832 60.394 101.608C60.1706 101.385 60.0444 101.082 60.043 100.766C60.043 100.45 60.1686 100.147 60.3923 99.923C60.616 99.6993 60.9194 99.5736 61.2358 99.5736C61.3929 99.5729 61.5486 99.6032 61.694 99.6628C61.8393 99.7224 61.9715 99.8102 62.0828 99.921C62.1942 100.032 62.2825 100.164 62.3428 100.309C62.4031 100.454 62.4342 100.609 62.4342 100.766C62.4327 101.083 62.3058 101.387 62.0812 101.61C61.8566 101.834 61.5526 101.959 61.2358 101.959Z" fill="#00856F"/>
<path d="M68.9414 201.757H55.1934C55.1934 201.311 55.3704 200.884 55.6854 200.569C56.0005 200.254 56.4278 200.077 56.8734 200.077H67.2558C67.7013 200.077 68.1286 200.254 68.4437 200.569C68.7588 200.884 68.9358 201.311 68.9358 201.757H68.9414Z" fill="#00856F"/>
<path d="M74.8999 85.2712H49.2407C48.9185 85.2673 48.601 85.1939 48.3097 85.0561C48.0185 84.9183 47.7604 84.7193 47.5531 84.4726C47.3458 84.226 47.1941 83.9375 47.1084 83.6269C47.0228 83.3163 47.0051 82.9908 47.0567 82.6728L51.8839 54.7848C51.9767 54.2705 52.2463 53.8048 52.6462 53.4684C53.046 53.1319 53.5509 52.9458 54.0735 52.9424H70.0671C70.5887 52.9471 71.0923 53.1338 71.491 53.4701C71.8897 53.8065 72.1586 54.2714 72.2511 54.7848L77.0839 82.6728C77.1355 82.9908 77.1178 83.3163 77.0322 83.6269C76.9465 83.9375 76.7949 84.226 76.5875 84.4726C76.3802 84.7193 76.1221 84.9183 75.8309 85.0561C75.5396 85.1939 75.2221 85.2673 74.8999 85.2712Z" fill="#00856F"/>
<path opacity="0.6" d="M74.8999 85.2712H49.2407C48.9185 85.2673 48.601 85.1939 48.3097 85.0561C48.0185 84.9183 47.7604 84.7193 47.5531 84.4726C47.3458 84.226 47.1941 83.9375 47.1084 83.6269C47.0228 83.3163 47.0051 82.9908 47.0567 82.6728L51.8839 54.7848C51.9767 54.2705 52.2463 53.8048 52.6462 53.4684C53.046 53.1319 53.5509 52.9458 54.0735 52.9424H70.0671C70.5887 52.9471 71.0923 53.1338 71.491 53.4701C71.8897 53.8065 72.1586 54.2714 72.2511 54.7848L77.0839 82.6728C77.1355 82.9908 77.1178 83.3163 77.0322 83.6269C76.9465 83.9375 76.7949 84.226 76.5875 84.4726C76.3802 84.7193 76.1221 84.9183 75.8309 85.0561C75.5396 85.1939 75.2221 85.2673 74.8999 85.2712Z" fill="white"/>
<path d="M143.988 5.94721L144.788 5.3312C145.133 5.06812 145.564 4.94451 145.996 4.98498C146.428 5.02545 146.828 5.22704 147.118 5.54961L148.501 7.08401C148.733 7.34399 148.882 7.66809 148.927 8.01383C148.972 8.35958 148.911 8.71085 148.753 9.0216L148.4 9.7608C148.159 10.2287 147.808 10.6309 147.377 10.9324C146.946 11.2339 146.447 11.4257 145.925 11.4912L143.685 11.7768C143.101 11.8513 142.508 11.7933 141.95 11.6071C141.391 11.421 140.882 11.1115 140.46 10.7016L139.933 10.1976C140.947 7.7728 143.988 5.94721 143.988 5.94721Z" fill="#B55B52"/>
<path d="M117.679 42.0952L117.718 41.328L117.763 40.628C117.802 40.1688 117.852 39.7096 117.903 39.256C118.004 38.3488 118.144 37.4528 118.295 36.5512C118.606 34.7545 119.018 32.9766 119.527 31.2256C120.036 29.4493 120.665 27.7093 121.408 26.0176C122.155 24.2815 123.049 22.6122 124.08 21.028C124.42 20.5094 124.804 20.0204 125.228 19.5664C125.586 19.1688 125.939 18.8328 126.292 18.5024C126.986 17.8584 127.68 17.2704 128.369 16.7048C129.752 15.5848 131.169 14.5488 132.58 13.5408C135.405 11.5499 138.328 9.7033 141.339 8.00801C141.75 7.77733 142.232 7.70438 142.694 7.80278C143.155 7.90119 143.565 8.16423 143.847 8.54278C144.129 8.92134 144.263 9.38953 144.225 9.85996C144.187 10.3304 143.979 10.7709 143.64 11.0992C141.216 13.4512 138.718 15.7528 136.304 18.0544C135.095 19.1744 133.908 20.3672 132.771 21.5152C132.211 22.0752 131.651 22.6688 131.169 23.2344C130.934 23.5144 130.699 23.7944 130.508 24.0464C130.364 24.2209 130.237 24.4084 130.128 24.6064C128.741 27.3374 127.688 30.2254 126.992 33.208C126.622 34.7256 126.308 36.2712 126.056 37.828C125.928 38.6064 125.821 39.3848 125.72 40.1632L125.586 41.328L125.524 41.888L125.48 42.3976V42.5936C125.382 43.605 124.893 44.5383 124.117 45.194C123.341 45.8497 122.339 46.1758 121.325 46.1027C120.312 46.0296 119.367 45.563 118.693 44.8027C118.019 44.0424 117.669 43.0485 117.718 42.0336L117.679 42.0952Z" fill="#B55B52"/>
<path d="M152.404 23.52C161.969 31.5896 149.352 39.088 158.251 47.7288C167.149 56.3696 173.813 62.5968 166.516 71.288C160.642 78.2824 143.31 81.8216 130.491 70.4592C117.673 59.0968 137.592 50.9824 128.391 44.1952C119.191 37.408 130.855 22.3048 134.215 20.9496C133.958 13.6024 149.251 12.6056 152.404 23.52Z" fill="#263238"/>
<path d="M175.09 69.3784C175.049 69.3861 175.007 69.3861 174.967 69.3784C169.098 66.5784 168.118 62.1712 167.171 57.8984C166.27 53.8384 165.346 49.6384 160.367 46.452C153.037 41.7592 154.543 37.4584 155.887 33.6616C157.147 30.0608 158.239 26.9416 152.012 23.856C151.945 23.8223 151.894 23.7634 151.87 23.6921C151.845 23.6208 151.85 23.5428 151.883 23.4752C151.919 23.4085 151.979 23.358 152.051 23.334C152.123 23.3101 152.201 23.3145 152.27 23.3464C158.945 26.6672 157.724 30.156 156.431 33.852C155.137 37.548 153.743 41.5184 160.692 45.9704C165.867 49.2856 166.824 53.5976 167.748 57.7752C168.706 62.104 169.613 66.1752 175.23 68.8576C175.298 68.8903 175.351 68.9488 175.376 69.0202C175.401 69.0916 175.397 69.1701 175.364 69.2384C175.337 69.286 175.297 69.3246 175.248 69.3495C175.199 69.3744 175.144 69.3844 175.09 69.3784Z" fill="#263238"/>
<path d="M108.461 68.0904C108.461 68.0904 100.503 92.6016 95.9336 110.152C95.3734 112.309 95.0985 114.531 95.116 116.76C95.2896 134.814 95.676 170.755 95.676 170.755L99.9712 171.343C99.9712 171.343 110.522 132.143 107.906 117.426C122.802 90.888 127.26 77.2128 127.26 77.2128L108.461 68.0904Z" fill="#263238"/>
<path opacity="0.2" d="M115.478 88.648L119.599 95.0824C117.908 98.6179 115.866 102.663 113.473 107.218C113.781 101.877 113.29 96.5205 112.017 91.3248L115.478 88.648Z" fill="black"/>
<path d="M111.16 82.88C109.223 86.5256 110.085 90.664 111.995 94.3208C115.646 101.304 124.074 112.941 128.196 123.749C131.696 132.933 168.23 149.666 172.296 153.037L175.28 150.08C175.28 150.08 150.64 121.761 140.252 119.974C137.234 84.6216 126.768 75.2248 126.768 75.2248C119.437 73.8864 114.414 76.7648 111.16 82.88Z" fill="#263238"/>
<path d="M177.336 149.436C176.031 149.111 174.888 147.991 172.716 146.076C172.63 145.997 172.526 145.94 172.413 145.91C172.3 145.881 172.181 145.879 172.068 145.906C171.954 145.932 171.848 145.986 171.76 146.062C171.672 146.139 171.604 146.236 171.562 146.345C170.965 147.969 170.215 149.533 169.322 151.015C169.219 151.164 169.175 151.346 169.2 151.526C169.225 151.705 169.317 151.869 169.456 151.984C174.592 156.206 173.936 157.08 174.16 158.866C174.457 161.062 173.477 165.127 175.056 164.735C177.296 164.175 178.624 161.33 178.467 159.04C178.332 157.086 178.517 154.739 179.111 153.278C179.626 152.04 179.2 149.906 177.336 149.436Z" fill="#00856F"/>
<path d="M101.64 173.191C101.08 171.875 101.08 170.806 102.682 166.034C102.717 165.935 102.73 165.83 102.72 165.725C102.709 165.62 102.676 165.519 102.623 165.428C102.57 165.338 102.497 165.26 102.411 165.2C102.324 165.14 102.226 165.1 102.122 165.082C100.537 164.858 97.1659 164.433 95.4019 164.601C95.3059 164.609 95.2124 164.635 95.1268 164.68C95.0413 164.724 94.9656 164.785 94.904 164.859C94.8424 164.933 94.7963 165.019 94.7683 165.111C94.7403 165.203 94.7311 165.3 94.7411 165.396C95.0939 168.986 93.1675 175.112 88.9171 177.962C87.1027 179.178 88.3291 180.202 89.9195 179.956C92.5179 179.592 94.2539 178.209 96.2419 177.156C97.5075 176.478 98.8795 176.697 100.358 176.215C100.661 176.13 100.942 175.977 101.178 175.768C101.415 175.56 101.601 175.301 101.725 175.011C101.848 174.721 101.904 174.406 101.889 174.091C101.875 173.777 101.79 173.469 101.64 173.191Z" fill="#00856F"/>
<path d="M116.911 43.3776C116.055 45.3656 110.791 48.3784 113.322 52.8304C111.86 56.9856 110.522 61.1296 108.461 68.0904L128.274 77.7056C130.167 71.7248 133.426 65.4528 142.145 54.1856C142.621 53.5678 142.962 52.8569 143.146 52.0989C143.329 51.3409 143.352 50.5528 143.211 49.7857C143.071 49.0185 142.771 48.2894 142.33 47.6457C141.89 47.0019 141.319 46.4579 140.655 46.0488C139.905 45.584 139.099 45.108 138.259 44.6544C135.369 42.9865 132.364 41.5286 129.265 40.292C128.251 39.9056 127.187 39.5416 126.163 39.2112C124.378 38.6362 122.444 38.744 120.735 39.5137C119.026 40.2835 117.663 41.6604 116.911 43.3776Z" fill="#00856F"/>
<path d="M129.265 40.2696C126.924 39.2728 124.93 35.4424 125.871 32.312C122.646 32.5192 118.843 34.552 117.516 37.5088C116.99 40.5328 116.956 46.5472 116.956 46.5472L129.265 40.2696Z" fill="#00856F"/>
<path d="M186.201 48.5744L187.013 47.9752C187.36 47.7154 187.597 47.3342 187.676 46.9076C187.754 46.4811 187.67 46.0404 187.438 45.6736L186.318 43.9264C186.132 43.6306 185.861 43.3984 185.54 43.2604C185.219 43.1224 184.863 43.0852 184.521 43.1536L183.709 43.3104C183.192 43.4139 182.709 43.642 182.301 43.9748C181.893 44.3076 181.573 44.7351 181.368 45.22L180.483 47.2864C180.252 47.8272 180.146 48.413 180.172 49.0004C180.198 49.5878 180.356 50.1619 180.634 50.68L180.981 51.324C183.613 50.9992 186.201 48.5744 186.201 48.5744Z" fill="#B55B52"/>
<path d="M140 47.2584L150.483 48.3784C152.225 48.552 153.967 48.7424 155.691 48.8936L158.262 49.0952C159.096 49.1568 160.015 49.2072 160.586 49.2016C162.137 49.1344 163.946 48.9776 165.654 48.7928L170.918 48.2328C174.446 47.8576 178.002 47.4824 181.558 47.2136C182.032 47.1768 182.503 47.3152 182.882 47.6026C183.261 47.8901 183.522 48.3065 183.614 48.7731C183.707 49.2397 183.625 49.724 183.384 50.1343C183.143 50.5446 182.761 50.8523 182.308 50.9992C178.87 52.1192 175.415 53.0712 171.92 53.9392C170.173 54.376 168.415 54.7792 166.634 55.16C164.853 55.5408 163.095 55.8936 161.095 56.1288C159.88 56.2408 159.018 56.2464 158.071 56.2632C157.125 56.28 156.212 56.2632 155.271 56.2632C153.44 56.224 151.62 56.1568 149.811 56.0392C146.183 55.8152 142.615 55.4792 139.009 54.9752C138.072 54.7524 137.25 54.1926 136.699 53.4024C136.149 52.6122 135.908 51.647 136.024 50.6909C136.14 49.7348 136.603 48.8547 137.326 48.2185C138.049 47.5823 138.981 47.2346 139.944 47.2416L140 47.2584Z" fill="#B55B52"/>
<path d="M130.396 72.716C131.247 73.276 129.22 76.8488 129.993 78.316C130.766 79.7832 131.113 80.556 130.407 80.7576C129.702 80.9592 115.422 78.0416 107.599 72.1224C107.455 72.0084 107.342 71.861 107.269 71.6931C107.195 71.5252 107.165 71.3418 107.179 71.1592C107.414 68.0568 108.859 63.8512 109.755 63.7896C110.651 63.728 127.243 70.6776 130.396 72.716Z" fill="#00856F"/>
<path opacity="0.4" d="M130.396 72.716C131.247 73.276 129.22 76.8488 129.993 78.316C130.766 79.7832 131.113 80.556 130.407 80.7576C129.702 80.9592 115.422 78.0416 107.599 72.1224C107.455 72.0084 107.342 71.861 107.269 71.6931C107.195 71.5252 107.165 71.3418 107.179 71.1592C107.414 68.0568 108.859 63.8512 109.755 63.7896C110.651 63.728 127.243 70.6776 130.396 72.716Z" fill="white"/>
<path d="M142.285 34.0704C140.314 36.6856 137.172 41.7144 138.259 44.632C138.259 44.632 131.18 42.4816 124.259 46.312C124.623 40.5664 129.243 40.2472 129.243 40.2472C132.844 41.0368 133.924 38.6064 134.451 36.0808L142.285 34.0704Z" fill="#B55B52"/>
<path opacity="0.2" d="M139.099 34.8992L134.479 36.1032C134.364 36.6937 134.198 37.2727 133.98 37.8336C135.302 38.2536 137.648 37.7216 138.41 36.4952C138.735 36.0096 138.968 35.4687 139.099 34.8992Z" fill="black"/>
<path d="M147.555 30.8336C144.139 34.9944 142.84 37.3184 139.009 37.4976C132.457 37.8 130.049 32.4576 131.679 28.5992C133.628 24.0408 138.399 17.7856 143.814 19.0792C149.229 20.3728 150.965 26.6728 147.555 30.8336Z" fill="#B55B52"/>
<path d="M138.376 17.7184C138.673 20.9496 144.57 25.4576 146.446 26.5216C143.96 27.7088 142.851 33.012 147.359 33.46C151.867 33.908 155.86 15.6184 138.376 17.7184Z" fill="#263238"/>
<path d="M133.549 28.112C133.549 28.112 135.319 28.5096 139.832 30.5648C138.712 31.528 137.239 32.0656 134.932 30.996C132.625 29.9264 133.549 28.112 133.549 28.112Z" fill="#263238"/>
<path d="M136.472 30.5368C135.611 30.0898 134.64 29.8956 133.672 29.9768C133.987 30.4312 134.427 30.7851 134.938 30.996C135.798 31.4487 136.77 31.6432 137.738 31.556C137.426 31.0986 136.986 30.744 136.472 30.5368Z" fill="#ED847E"/>
<path d="M133.768 28.168C133.744 28.3453 133.77 28.5257 133.844 28.6889C133.917 28.852 134.034 28.9916 134.182 29.092C135.524 29.6981 136.909 30.2035 138.326 30.604C138.539 30.6865 138.769 30.7179 138.997 30.6955C139.224 30.6731 139.443 30.5977 139.636 30.4752C137.737 29.5695 135.776 28.7985 133.768 28.168Z" fill="white"/>
<path d="M137.329 24.64C136.43 25.218 135.456 25.6702 134.434 25.984C134.585 26.7624 135.52 27.1376 135.52 27.1376L137.329 24.64Z" fill="#ED847E"/>
<path d="M146.194 34.9664C145.775 35.2107 145.309 35.3634 144.826 35.4146C144.343 35.4657 143.855 35.4141 143.394 35.2632C142.229 34.8376 142.515 33.4264 143.568 32.5472C144.514 31.752 146.256 31.024 147.073 31.9368C147.891 32.8496 147.331 34.3392 146.194 34.9664Z" fill="#B55B52"/>
<path d="M142.318 26.712C142.305 26.6802 142.297 26.6459 142.297 26.6112C142.297 26.5765 142.305 26.5422 142.318 26.5104C142.458 26.2155 142.523 25.8913 142.51 25.5655C142.496 25.2398 142.403 24.9222 142.24 24.64C142.204 24.5833 142.191 24.5147 142.205 24.4488C142.218 24.3828 142.257 24.3248 142.313 24.2872C142.34 24.2674 142.371 24.2534 142.404 24.2461C142.437 24.2387 142.471 24.2382 142.504 24.2445C142.537 24.2508 142.568 24.2638 142.596 24.2827C142.624 24.3016 142.648 24.326 142.666 24.3544C142.874 24.7053 142.995 25.1011 143.018 25.5084C143.041 25.9158 142.967 26.3228 142.8 26.6952C142.773 26.7573 142.723 26.8062 142.66 26.8313C142.597 26.8565 142.526 26.8559 142.464 26.8296C142.433 26.8213 142.404 26.8066 142.379 26.7863C142.354 26.766 142.333 26.7407 142.318 26.712Z" fill="#263238"/>
<path d="M140.213 26.88C140.178 26.8461 140.158 26.7998 140.157 26.7512C140.164 26.5256 140.116 26.3017 140.019 26.0981C139.921 25.8945 139.777 25.7172 139.597 25.5808C139.559 25.5537 139.533 25.5128 139.524 25.4667C139.516 25.4207 139.526 25.3732 139.552 25.3344C139.565 25.3144 139.581 25.2972 139.6 25.2838C139.62 25.2704 139.642 25.2611 139.665 25.2564C139.688 25.2516 139.711 25.2517 139.734 25.2564C139.757 25.2612 139.779 25.2705 139.799 25.284C140.024 25.4548 140.205 25.6772 140.327 25.9324C140.449 26.1877 140.508 26.4685 140.499 26.7512C140.497 26.7992 140.477 26.8448 140.443 26.8783C140.408 26.9117 140.362 26.9304 140.314 26.9304C140.275 26.9253 140.24 26.9075 140.213 26.88Z" fill="#263238"/>
<path d="M136.668 23.7384C136.644 23.7405 136.62 23.7376 136.597 23.7299C136.574 23.7222 136.552 23.7098 136.534 23.6936C136.368 23.5441 136.168 23.4359 135.952 23.3775C135.737 23.3191 135.51 23.3123 135.291 23.3576C135.269 23.3645 135.246 23.3669 135.223 23.3647C135.2 23.3624 135.177 23.3557 135.157 23.3447C135.137 23.3338 135.119 23.3189 135.104 23.3009C135.09 23.2829 135.079 23.2622 135.072 23.24C135.058 23.1947 135.063 23.1457 135.085 23.1037C135.107 23.0617 135.145 23.0302 135.19 23.016C135.466 22.952 135.753 22.9557 136.027 23.0269C136.301 23.0981 136.554 23.2346 136.764 23.4248C136.797 23.4584 136.815 23.5036 136.815 23.5508C136.815 23.598 136.797 23.6433 136.764 23.6768C136.738 23.706 136.705 23.7274 136.668 23.7384Z" fill="#263238"/>
<path d="M136.59 21.0392C136.559 21.0284 136.531 21.0113 136.507 20.9892C136.483 20.9671 136.463 20.9402 136.45 20.9104C136.423 20.8478 136.422 20.7773 136.446 20.7136C136.47 20.6499 136.517 20.598 136.579 20.5688C136.945 20.3902 137.349 20.3026 137.757 20.3133C138.164 20.3241 138.563 20.4328 138.92 20.6304C138.977 20.6662 139.019 20.7234 139.034 20.7895C139.05 20.8556 139.039 20.9252 139.004 20.9832C138.967 21.0413 138.909 21.0826 138.842 21.0983C138.775 21.114 138.704 21.1028 138.645 21.0672C138.361 20.9141 138.045 20.8317 137.722 20.8268C137.399 20.8219 137.08 20.8948 136.792 21.0392C136.76 21.0531 136.726 21.0602 136.691 21.0602C136.656 21.0602 136.622 21.0531 136.59 21.0392Z" fill="#263238"/>
<path opacity="0.2" d="M121.207 52.4048C122.373 55.2987 124.469 57.722 127.165 59.2928C122.349 58.3632 121.05 54.5496 121.207 52.4048Z" fill="black"/>
<path d="M138.259 44.632C140.857 46.3624 147.997 47.0064 150.372 47.1744C150.451 47.1762 150.528 47.1997 150.594 47.2424C150.661 47.2851 150.715 47.3453 150.749 47.4165C150.784 47.4876 150.799 47.5669 150.791 47.6457C150.784 47.7245 150.755 47.7998 150.708 47.8632C149.632 48.9832 146.121 53.9448 145.981 56.4312C145.967 56.6809 145.872 56.9192 145.71 57.1101C145.548 57.301 145.329 57.4342 145.085 57.4896C138.186 58.996 135.039 58.1784 133.745 56.3976C132.39 54.5328 138.259 44.632 138.259 44.632Z" fill="#00856F"/>
</svg>
