<svg width="280" height="209" viewBox="0 0 280 209" fill="none" xmlns="http://www.w3.org/2000/svg">
<path d="M280 183.344H0V183.484H280V183.344Z" fill="#EBEBEB"/>
<path d="M251.944 192.354H233.397V192.494H251.944V192.354Z" fill="#EBEBEB"/>
<path d="M185.483 193.878H180.617V194.018H185.483V193.878Z" fill="#EBEBEB"/>
<path d="M232.837 187.158H222.09V187.298H232.837V187.158Z" fill="#EBEBEB"/>
<path d="M53.5638 188.098H29.3774V188.238H53.5638V188.098Z" fill="#EBEBEB"/>
<path d="M62.0985 188.098H58.5537V188.238H62.0985V188.098Z" fill="#EBEBEB"/>
<path d="M126.084 190.462H73.623V190.602H126.084V190.462Z" fill="#EBEBEB"/>
<path d="M132.72 158.368H24.5895C23.7424 158.367 22.9305 158.029 22.332 157.429C21.7336 156.83 21.3975 156.017 21.3975 155.17V3.1696C21.4048 2.32737 21.7442 1.52207 22.3419 0.928602C22.9395 0.335137 23.7472 0.00144278 24.5895 0H132.72C133.568 0 134.381 0.336889 134.981 0.936556C135.581 1.53622 135.917 2.34954 135.917 3.1976V155.17C135.917 156.018 135.581 156.832 134.981 157.431C134.381 158.031 133.568 158.368 132.72 158.368ZM24.5895 0.112C23.7795 0.113484 23.0032 0.436276 22.431 1.00953C21.8588 1.58278 21.5375 2.35964 21.5375 3.1696V155.17C21.5375 155.98 21.8588 156.757 22.431 157.33C23.0032 157.904 23.7795 158.227 24.5895 158.228H132.72C133.53 158.227 134.307 157.904 134.88 157.331C135.453 156.758 135.776 155.981 135.777 155.17V3.1696C135.776 2.35913 135.453 1.58228 134.88 1.00919C134.307 0.436095 133.53 0.113481 132.72 0.112H24.5895Z" fill="#EBEBEB"/>
<path d="M253.854 158.368H145.718C144.87 158.367 144.058 158.029 143.458 157.43C142.859 156.83 142.522 156.018 142.52 155.17V3.1696C142.529 2.32686 142.869 1.52156 143.468 0.928252C144.067 0.334941 144.875 0.00142704 145.718 0H253.854C254.695 0.00291452 255.501 0.33726 256.098 0.930568C256.694 1.52388 257.033 2.32834 257.04 3.1696V155.17C257.04 156.017 256.705 156.828 256.107 157.427C255.51 158.027 254.7 158.365 253.854 158.368ZM145.718 0.112C144.907 0.113481 144.13 0.436095 143.557 1.00919C142.984 1.58228 142.661 2.35913 142.66 3.1696V155.17C142.661 155.981 142.984 156.758 143.557 157.331C144.13 157.904 144.907 158.227 145.718 158.228H253.854C254.664 158.227 255.441 157.904 256.014 157.331C256.587 156.758 256.91 155.981 256.911 155.17V3.1696C256.91 2.35913 256.587 1.58228 256.014 1.00919C255.441 0.436095 254.664 0.113481 253.854 0.112H145.718Z" fill="#EBEBEB"/>
<path d="M100.319 105.106L230.065 105.106V18.8272L100.319 18.8272V105.106Z" fill="#E6E6E6"/>
<path d="M98.3078 105.106L228.054 105.106V18.8272L98.3078 18.8272V105.106Z" fill="#F5F5F5"/>
<path d="M224.448 101.052V22.8704L101.909 22.8704V101.052L224.448 101.052Z" fill="white"/>
<path d="M103.432 101.058V22.876H101.915V101.058H103.432Z" fill="#E6E6E6"/>
<path d="M99.7977 82.1856L226.565 82.1856V76.748L99.7977 76.748V82.1856Z" fill="#F5F5F5"/>
<g opacity="0.4">
<path opacity="0.4" d="M106.529 14.5656H94.2817V87.556H106.529V14.5656Z" fill="#E6E6E6"/>
<path opacity="0.4" d="M106.535 81.6928H112.605L112.605 14.5656H106.535L106.535 81.6928Z" fill="#F5F5F5"/>
<path opacity="0.4" d="M124.852 14.5656H112.605V87.556H124.852V14.5656Z" fill="#E6E6E6"/>
<path opacity="0.4" d="M124.858 81.6928H130.928V14.5656H124.858L124.858 81.6928Z" fill="#F5F5F5"/>
<path opacity="0.4" d="M143.175 14.5656H130.928V87.556H143.175V14.5656Z" fill="#E6E6E6"/>
<path opacity="0.4" d="M143.181 81.6928H149.251V14.5656H143.181V81.6928Z" fill="#F5F5F5"/>
<path opacity="0.4" d="M161.498 14.5656H149.251V87.556H161.498V14.5656Z" fill="#E6E6E6"/>
<path opacity="0.4" d="M161.504 81.6928H167.574V14.5656H161.504V81.6928Z" fill="#F5F5F5"/>
<path opacity="0.4" d="M179.821 14.5656H167.574V87.556H179.821V14.5656Z" fill="#E6E6E6"/>
<path opacity="0.4" d="M179.822 81.6928H185.892V14.5656H179.822V81.6928Z" fill="#F5F5F5"/>
<path opacity="0.4" d="M198.139 14.5656H185.892V87.556H198.139V14.5656Z" fill="#E6E6E6"/>
<path opacity="0.4" d="M198.145 81.6928H204.215V14.5656H198.145V81.6928Z" fill="#F5F5F5"/>
<path opacity="0.4" d="M216.463 14.5656H204.215V87.556H216.463V14.5656Z" fill="#E6E6E6"/>
<path opacity="0.4" d="M216.468 81.6928H222.539V14.5656H216.468V81.6928Z" fill="#F5F5F5"/>
<path opacity="0.4" d="M234.786 14.5656H222.539V87.556H234.786V14.5656Z" fill="#E6E6E6"/>
</g>
<path d="M46.3626 183.344H75.085L75.085 124.32H46.3626L46.3626 183.344Z" fill="#EBEBEB"/>
<path d="M51.8167 183.344H46.3623V171.321H57.5399L51.8167 183.344Z" fill="#F5F5F5"/>
<path d="M210.241 183.344H238.963V124.32H210.241V183.344Z" fill="#EBEBEB"/>
<path d="M46.3626 175.969L215.001 175.969V124.32L46.3626 124.32V175.969Z" fill="#F5F5F5"/>
<path d="M209.395 161.398H159.404C159.282 161.398 159.165 161.349 159.079 161.263C158.993 161.177 158.945 161.06 158.945 160.938V128.24C158.945 128.118 158.993 128.001 159.079 127.915C159.165 127.829 159.282 127.781 159.404 127.781H168.633C168.732 127.779 168.829 127.81 168.907 127.87C170.279 128.873 171.8 129.654 173.415 130.183C175.362 130.828 177.401 131.153 179.452 131.146H189.342C193.125 131.213 196.83 130.071 199.92 127.887C199.997 127.828 200.092 127.796 200.189 127.798H209.423C209.545 127.798 209.662 127.846 209.748 127.932C209.834 128.018 209.882 128.135 209.882 128.257V160.938C209.883 161.001 209.87 161.063 209.845 161.121C209.82 161.178 209.784 161.23 209.738 161.273C209.693 161.316 209.639 161.35 209.58 161.371C209.521 161.392 209.458 161.401 209.395 161.398ZM159.863 160.479H208.936V128.716H200.312C197.097 130.957 193.26 132.132 189.342 132.076H179.452C177.302 132.083 175.165 131.741 173.124 131.062C171.468 130.519 169.904 129.726 168.487 128.71H159.863V160.479Z" fill="#E6E6E6"/>
<path d="M155.68 161.398H105.683C105.562 161.398 105.445 161.349 105.359 161.263C105.273 161.177 105.224 161.06 105.224 160.938V128.24C105.224 128.118 105.273 128.001 105.359 127.915C105.445 127.829 105.562 127.781 105.683 127.781H114.414C114.513 127.779 114.609 127.81 114.688 127.87C116.05 128.873 117.562 129.653 119.168 130.183C121.115 130.828 123.154 131.153 125.205 131.146H135.095C138.865 131.202 142.554 130.054 145.628 127.87C145.708 127.812 145.804 127.78 145.903 127.781H155.68C155.741 127.78 155.801 127.791 155.857 127.814C155.913 127.837 155.964 127.871 156.007 127.914C156.049 127.956 156.083 128.007 156.106 128.063C156.129 128.119 156.14 128.179 156.139 128.24V160.922C156.142 160.983 156.131 161.045 156.109 161.102C156.087 161.16 156.054 161.213 156.011 161.257C155.968 161.302 155.917 161.337 155.86 161.361C155.803 161.385 155.742 161.398 155.68 161.398ZM106.148 160.479H155.221V128.716H146.082C142.871 130.956 139.037 132.131 135.123 132.076H125.233C123.083 132.083 120.945 131.741 118.905 131.062C117.245 130.522 115.68 129.729 114.263 128.71H106.143L106.148 160.479Z" fill="#E6E6E6"/>
<path d="M101.959 161.398H51.968C51.8462 161.398 51.7294 161.349 51.6433 161.263C51.5572 161.177 51.5088 161.06 51.5088 160.938V128.24C51.5081 128.179 51.5194 128.119 51.5422 128.063C51.5651 128.007 51.5989 127.956 51.6416 127.914C51.6844 127.871 51.7354 127.837 51.7914 127.814C51.8475 127.791 51.9075 127.78 51.968 127.781H60.6984C60.7956 127.78 60.8903 127.811 60.9672 127.87C62.3305 128.871 63.8422 129.651 65.4472 130.183C67.3963 130.828 69.4367 131.153 71.4896 131.146H81.3792C85.1528 131.201 88.8458 130.054 91.924 127.87C92.0027 127.81 92.0994 127.779 92.1984 127.781H101.931C102.053 127.781 102.17 127.829 102.256 127.915C102.342 128.001 102.39 128.118 102.39 128.24V160.922C102.395 161.042 102.352 161.159 102.272 161.248C102.191 161.337 102.079 161.39 101.959 161.398ZM52.4272 160.479H101.5V128.716H92.4C89.1867 130.956 85.3517 132.131 81.4352 132.076H71.5176C69.3673 132.084 67.23 131.741 65.1896 131.062C63.5301 130.522 61.9642 129.729 60.5472 128.71H52.4272V160.479Z" fill="#E6E6E6"/>
<path d="M209.546 183.344H215.001V171.321H203.829L209.546 183.344Z" fill="#F5F5F5"/>
<path d="M80.6062 114.43H76.0758C76.1094 111.294 76.0758 103.331 75.7566 85.092C75.1966 52.052 74.1494 50.0136 74.1494 50.0136L79.5198 66.332C80.795 70.1698 81.5374 74.1644 81.7262 78.204C82.3198 90.9272 80.0798 101.086 80.6062 114.43Z" fill="#E6E6E6"/>
<path d="M84.0503 61.4096C90.0927 52.2648 102.155 47.4936 114.486 43.0024C119.325 41.2384 105.739 63.1176 95.8607 73.0408C88.1887 80.7464 80.7407 80.5728 78.5399 88.1608C78.1143 79.3464 78.8423 69.2888 84.0503 61.4096Z" fill="#E6E6E6"/>
<path d="M77.1286 55.5408C72.391 44.8448 60.4238 30.9736 46.9726 21.2016C41.6918 17.3656 54.723 50.3216 63.9126 63.7952C71.0694 74.3008 77.7446 80.696 78.7862 88.1888C83.2998 78.8144 81.8606 66.2312 77.1286 55.5408Z" fill="#E6E6E6"/>
<path d="M77.577 124.32C80.1381 124.32 82.602 123.34 84.4638 121.581C86.3255 119.823 87.444 117.418 87.5898 114.862L88.4802 105.795H66.6738L67.5586 114.862C67.7059 117.419 68.8255 119.823 70.6882 121.582C72.5508 123.34 75.0154 124.32 77.577 124.32Z" fill="#F0F0F0"/>
<path d="M65.2622 105.846H89.891L90.5966 102.626H64.5566L65.2622 105.846Z" fill="#F0F0F0"/>
<path d="M66.4778 111.367H88.6762L89.3146 108.147H65.8394L66.4778 111.367Z" fill="#F0F0F0"/>
<path d="M140 208.634C199.966 208.634 248.578 205.795 248.578 202.294C248.578 198.793 199.966 195.955 140 195.955C80.0336 195.955 31.4214 198.793 31.4214 202.294C31.4214 205.795 80.0336 208.634 140 208.634Z" fill="#F5F5F5"/>
<path d="M226.957 147.465H53.0376V167.154H226.957V147.465Z" fill="#00856F"/>
<path opacity="0.3" d="M226.962 147.465H189.655V167.154H226.962V147.465Z" fill="black"/>
<path d="M72.24 167.154H53.0376V202.294H72.24V167.154Z" fill="#00856F"/>
<path opacity="0.3" d="M53.0435 167.154V169.12L66.6403 173.225V202.294H72.2403V167.154H53.0435Z" fill="black"/>
<path d="M226.963 167.154H207.76V202.294H226.963V167.154Z" fill="#00856F"/>
<path opacity="0.2" d="M226.963 167.154H207.76V202.294H226.963V167.154Z" fill="black"/>
<path opacity="0.3" d="M207.76 167.154V169.12L221.363 173.225V202.294H226.963V167.154H207.76Z" fill="black"/>
<path d="M189.655 167.154H170.453V202.294H189.655V167.154Z" fill="#00856F"/>
<path opacity="0.3" d="M170.453 167.154V169.12L184.055 173.225V202.294H189.655V167.154H170.453Z" fill="black"/>
<path d="M109.547 167.154H90.3447V202.294H109.547V167.154Z" fill="#00856F"/>
<path opacity="0.2" d="M109.547 167.154H90.3447V202.294H109.547V167.154Z" fill="black"/>
<path opacity="0.3" d="M90.3447 167.154V169.12L103.947 173.225V202.294H109.547V167.154H90.3447Z" fill="black"/>
<path d="M202.988 143.595H96.6554C96.3241 143.598 95.9958 143.531 95.6914 143.401C95.3869 143.27 95.1129 143.077 94.8866 142.835C94.6603 142.593 94.4867 142.307 94.3767 141.994C94.2667 141.682 94.2227 141.35 94.2474 141.019L98.6266 71.5288C98.6821 70.8362 98.9931 70.189 99.4992 69.7129C100.005 69.2368 100.67 68.9659 101.365 68.9528H207.692C208.024 68.9503 208.352 69.0166 208.656 69.1474C208.961 69.2782 209.235 69.4707 209.461 69.7128C209.687 69.9549 209.861 70.2413 209.971 70.5538C210.081 70.8664 210.125 71.1984 210.1 71.5288L205.721 141.019C205.666 141.711 205.355 142.357 204.851 142.833C204.346 143.309 203.682 143.581 202.988 143.595Z" fill="#263238"/>
<path opacity="0.6" d="M202.988 143.595H96.6554C96.3241 143.598 95.9958 143.531 95.6914 143.401C95.3869 143.27 95.1129 143.077 94.8866 142.835C94.6603 142.593 94.4867 142.307 94.3767 141.994C94.2667 141.682 94.2227 141.35 94.2474 141.019L98.6266 71.5288C98.6821 70.8362 98.9931 70.189 99.4992 69.7129C100.005 69.2368 100.67 68.9659 101.365 68.9528H207.692C208.024 68.9503 208.352 69.0166 208.656 69.1474C208.961 69.2782 209.235 69.4707 209.461 69.7128C209.687 69.9549 209.861 70.2413 209.971 70.5538C210.081 70.8664 210.125 71.1984 210.1 71.5288L205.721 141.019C205.666 141.711 205.355 142.357 204.851 142.833C204.346 143.309 203.682 143.581 202.988 143.595Z" fill="black"/>
<path d="M202.193 143.595H95.8661C95.5343 143.598 95.2054 143.533 94.9003 143.402C94.5952 143.272 94.3205 143.079 94.0936 142.837C93.8667 142.595 93.6925 142.308 93.5822 141.996C93.4718 141.683 93.4277 141.35 93.4525 141.019L97.8317 71.5288C97.8872 70.8362 98.1982 70.189 98.7043 69.7129C99.2104 69.2368 99.8754 68.9659 100.57 68.9528H206.897C207.229 68.9495 207.558 69.0152 207.862 69.1457C208.167 69.2762 208.442 69.4687 208.668 69.711C208.895 69.9532 209.068 70.2399 209.178 70.5529C209.288 70.8658 209.331 71.1982 209.305 71.5288L204.926 141.019C204.871 141.711 204.561 142.357 204.056 142.833C203.551 143.309 202.887 143.581 202.193 143.595Z" fill="#263238"/>
<path d="M202.059 144.48H75.538C74.9556 144.475 74.3835 144.634 73.888 144.941C73.3925 145.247 72.9938 145.687 72.738 146.21C72.6732 146.346 72.6442 146.496 72.6536 146.647C72.663 146.797 72.7107 146.942 72.792 147.069C72.8733 147.196 72.9855 147.3 73.1182 147.371C73.2509 147.442 73.3995 147.478 73.55 147.476H204.019C204.169 147.478 204.318 147.442 204.451 147.371C204.583 147.3 204.696 147.196 204.777 147.069C204.858 146.942 204.906 146.797 204.915 146.647C204.925 146.496 204.896 146.346 204.831 146.21C204.578 145.691 204.184 145.252 203.694 144.946C203.203 144.64 202.637 144.479 202.059 144.48Z" fill="#263238"/>
<path opacity="0.6" d="M202.059 144.48H184.066C183.488 144.478 182.921 144.639 182.431 144.946C181.94 145.252 181.546 145.69 181.294 146.21C181.23 146.346 181.2 146.496 181.21 146.645C181.219 146.795 181.266 146.94 181.347 147.067C181.427 147.193 181.539 147.297 181.671 147.369C181.803 147.44 181.95 147.477 182.101 147.476H204.019C204.17 147.478 204.318 147.442 204.451 147.371C204.583 147.3 204.696 147.196 204.777 147.069C204.858 146.942 204.906 146.797 204.915 146.647C204.925 146.496 204.896 146.346 204.831 146.21C204.578 145.691 204.184 145.252 203.694 144.946C203.204 144.64 202.637 144.479 202.059 144.48Z" fill="black"/>
<path d="M190.904 146.664H186.256C186.148 146.662 186.046 146.619 185.97 146.542C185.895 146.466 185.853 146.363 185.853 146.255C185.853 146.148 185.895 146.045 185.97 145.968C186.046 145.892 186.148 145.848 186.256 145.846H190.904C190.957 145.846 191.011 145.857 191.06 145.877C191.11 145.898 191.155 145.928 191.193 145.966C191.231 146.004 191.261 146.049 191.281 146.099C191.302 146.148 191.313 146.201 191.313 146.255C191.313 146.309 191.302 146.362 191.281 146.412C191.261 146.461 191.231 146.506 191.193 146.544C191.155 146.582 191.11 146.612 191.06 146.633C191.011 146.653 190.957 146.664 190.904 146.664Z" fill="#00856F"/>
<path opacity="0.7" d="M131.135 146.664H126.492C126.384 146.664 126.28 146.621 126.203 146.544C126.127 146.468 126.083 146.364 126.083 146.255C126.083 146.201 126.094 146.148 126.115 146.099C126.135 146.049 126.165 146.004 126.203 145.966C126.241 145.928 126.286 145.898 126.336 145.877C126.385 145.857 126.439 145.846 126.492 145.846H131.135C131.188 145.846 131.242 145.857 131.291 145.877C131.341 145.898 131.386 145.928 131.424 145.966C131.462 146.004 131.492 146.049 131.512 146.099C131.533 146.148 131.543 146.201 131.543 146.255C131.543 146.364 131.5 146.468 131.424 146.544C131.347 146.621 131.243 146.664 131.135 146.664Z" fill="white"/>
<path d="M195.714 145.846H192.673C192.488 145.846 192.337 145.997 192.337 146.182V146.328C192.337 146.514 192.488 146.664 192.673 146.664H195.714C195.9 146.664 196.05 146.514 196.05 146.328V146.182C196.05 145.997 195.9 145.846 195.714 145.846Z" fill="#00856F"/>
<path d="M95.8492 138.51L99.9148 74.0376C99.9357 73.7687 100.057 73.5172 100.253 73.3328C100.45 73.1484 100.709 73.0442 100.979 73.0408H205.973C206.102 73.0389 206.229 73.0638 206.348 73.114C206.466 73.1642 206.573 73.2387 206.661 73.3325C206.749 73.4263 206.817 73.5375 206.859 73.6589C206.902 73.7804 206.919 73.9094 206.908 74.0376L202.848 138.51C202.826 138.78 202.704 139.031 202.506 139.216C202.309 139.4 202.049 139.504 201.779 139.507H96.79C96.6614 139.508 96.5339 139.483 96.4155 139.432C96.2972 139.382 96.1906 139.308 96.1023 139.214C96.0139 139.12 95.9459 139.01 95.9024 138.889C95.8588 138.768 95.8407 138.639 95.8492 138.51Z" fill="white"/>
<path opacity="0.1" d="M155.579 71.0528L120.607 137.525H94.8074C94.678 137.527 94.5497 137.502 94.4305 137.451C94.3114 137.401 94.2041 137.326 94.1155 137.231C94.027 137.137 93.9591 137.025 93.9162 136.903C93.8734 136.781 93.8565 136.651 93.8666 136.522L97.9322 72.0552C97.9531 71.7857 98.0737 71.5336 98.2704 71.3483C98.4672 71.1629 98.726 71.0576 98.9962 71.0528H155.579Z" fill="#00856F"/>
<path opacity="0.1" d="M186.205 71.0528L151.233 137.525H143.08L178.052 71.0528H186.205Z" fill="#00856F"/>
<path opacity="0.1" d="M204.926 72.0552L200.861 136.522C200.841 136.792 200.721 137.045 200.524 137.231C200.327 137.416 200.067 137.521 199.797 137.525H160.037L195.009 71.0528H203.969C204.099 71.0494 204.229 71.0733 204.35 71.123C204.47 71.1728 204.579 71.2473 204.67 71.3417C204.76 71.4361 204.829 71.5484 204.874 71.6713C204.918 71.7942 204.936 71.925 204.926 72.0552Z" fill="#00856F"/>
<path opacity="0.4" d="M154.352 71.12C154.337 71.3231 154.246 71.5132 154.098 71.653C153.95 71.7929 153.755 71.8724 153.552 71.876C153.454 71.8771 153.358 71.8579 153.268 71.8196C153.179 71.7813 153.098 71.7248 153.032 71.6537C152.966 71.5825 152.915 71.4983 152.883 71.4064C152.851 71.3146 152.838 71.217 152.846 71.12C152.86 70.9164 152.95 70.7256 153.099 70.5855C153.247 70.4454 153.443 70.3663 153.647 70.364C153.744 70.3629 153.841 70.3821 153.93 70.4204C154.019 70.4587 154.1 70.5152 154.166 70.5863C154.233 70.6575 154.284 70.7417 154.316 70.8336C154.348 70.9254 154.36 71.023 154.352 71.12Z" fill="white"/>
<path d="M137.004 55.6584C133.941 59.164 132.171 69.9104 134.439 75.1968C136.707 80.4832 110.393 85.7752 132.104 94.3656C153.815 102.956 171.181 92.9936 164.897 84.0952C158.614 75.1968 165.575 60.3792 158.301 56.6552C151.726 53.2616 143.141 48.6304 137.004 55.6584Z" fill="#263238"/>
<path d="M130.513 98.9296C129.365 102.85 128.144 106.77 126.879 110.69C125.613 114.61 124.297 118.485 122.903 122.377L122.371 123.844L122.102 124.578L122.018 124.796L121.884 125.126C121.8 125.339 121.671 125.569 121.559 125.787C121.011 126.787 120.195 127.614 119.201 128.173C118.299 128.663 117.293 128.928 116.267 128.946C114.828 128.953 113.402 128.673 112.072 128.122C110.984 127.681 109.93 127.159 108.92 126.56C105.248 124.302 101.883 121.581 98.9067 118.462L101.32 115.618C102.132 116.138 103 116.693 103.84 117.214C104.68 117.734 105.56 118.238 106.411 118.737C108.079 119.713 109.801 120.594 111.568 121.374C112.374 121.73 113.205 122.024 114.055 122.254C114.642 122.449 115.264 122.521 115.88 122.466C116.037 122.466 116.009 122.377 115.88 122.427C115.752 122.478 115.612 122.623 115.606 122.606C115.6 122.59 115.606 122.606 115.606 122.573C115.609 122.562 115.609 122.55 115.606 122.539L115.651 122.399L115.864 121.677L116.295 120.221L119.716 108.461C120.881 104.541 122.08 100.621 123.312 96.7008L130.513 98.9296Z" fill="#B65B52"/>
<path d="M101.147 115.528L94.6396 113.12L97.2212 119.997C97.2212 119.997 101.813 120.658 103.594 118.244L102.144 116.301C101.892 115.953 101.546 115.685 101.147 115.528Z" fill="#B55B52"/>
<path d="M88.8994 115.119L91.3746 120.758L97.249 119.986L94.6618 113.109L88.8994 115.119Z" fill="#B55B52"/>
<path d="M125.765 88.788C122.785 89.544 120.725 101.791 120.725 101.791L128.929 107.391C128.929 107.391 136.769 95.0376 134.501 91.7672C132.093 88.3344 130.105 87.6848 125.765 88.788Z" fill="#00856F"/>
<path opacity="0.5" d="M125.765 88.788C122.785 89.544 120.725 101.791 120.725 101.791L128.929 107.391C128.929 107.391 136.769 95.0376 134.501 91.7672C132.093 88.3344 130.105 87.6848 125.765 88.788Z" fill="white"/>
<path opacity="0.2" d="M125.496 93.24L131.863 94.7128L132.473 100.946C131.395 103.146 130.204 105.29 128.906 107.369L123.928 104.009C124.146 101.125 124.684 95.2 125.496 93.24Z" fill="black"/>
<path d="M125.765 88.788C125.765 88.788 122.321 89.9976 129.214 132.367H158.536C158.043 120.434 158.032 113.07 163.733 88.5808C159.628 87.7321 155.468 87.1837 151.284 86.94C146.35 86.6992 142.324 86.5424 137.967 86.94C132.249 87.4608 125.765 88.788 125.765 88.788Z" fill="#00856F"/>
<path opacity="0.5" d="M125.765 88.788C125.765 88.788 122.321 89.9976 129.214 132.367H158.536C158.043 120.434 158.032 113.07 163.733 88.5808C159.628 87.7321 155.468 87.1837 151.284 86.94C146.35 86.6992 142.324 86.5424 137.967 86.94C132.249 87.4608 125.765 88.788 125.765 88.788Z" fill="white"/>
<path opacity="0.2" d="M156.833 99.9488L160.619 103.174C159.812 107.458 159.269 111.014 158.939 114.201C158.216 111.02 156.413 102.385 156.833 99.9488Z" fill="black"/>
<path d="M149.962 71.9432C149.122 76.2272 148.282 84.0784 151.284 86.94C151.284 86.94 148.484 93.3576 141.064 93.3576C133.644 93.3576 137.967 86.94 137.967 86.94C142.744 85.82 142.621 82.2528 141.792 78.9264L149.962 71.9432Z" fill="#B55B52"/>
<path d="M150.331 85.3384C149.626 86.7664 147.352 90.0312 141.002 91.196C140.825 91.2284 140.643 91.1924 140.492 91.0952C139.305 90.2664 138.566 88.5136 139.087 86.4808C139.121 86.3559 139.12 86.2238 139.083 86.0995C139.047 85.9752 138.976 85.8637 138.879 85.7774C138.783 85.6912 138.664 85.6338 138.536 85.6116C138.408 85.5894 138.277 85.6034 138.157 85.652C137.669 85.8561 137.201 86.1035 136.757 86.3912C136.66 86.4558 136.58 86.5445 136.527 86.6488C136.063 87.5224 134.181 91.8008 139.859 94.4384C139.95 94.4771 140.047 94.4999 140.145 94.5056C143.505 94.5728 149.379 93.912 153.092 87.2256C153.159 87.1048 153.188 86.9673 153.177 86.83C153.166 86.6926 153.115 86.5615 153.031 86.4528C152.532 85.9065 151.952 85.44 151.311 85.0696C151.231 85.0178 151.14 84.9836 151.045 84.9691C150.951 84.9546 150.854 84.9602 150.761 84.9856C150.669 85.0109 150.583 85.0554 150.509 85.1162C150.435 85.177 150.374 85.2527 150.331 85.3384Z" fill="#FAFAFA"/>
<path d="M151.889 102.967L144.329 102.749C144.25 102.749 144.171 102.733 144.099 102.701C144.027 102.669 143.962 102.622 143.909 102.564C143.856 102.505 143.816 102.436 143.792 102.36C143.768 102.285 143.76 102.206 143.769 102.127L143.841 101.192C143.863 101.035 143.942 100.891 144.063 100.788C144.183 100.685 144.338 100.629 144.497 100.632L152.057 100.85C152.136 100.85 152.215 100.866 152.288 100.898C152.36 100.931 152.425 100.978 152.478 101.037C152.531 101.097 152.571 101.167 152.595 101.243C152.619 101.319 152.626 101.399 152.617 101.478L152.544 102.407C152.522 102.565 152.443 102.708 152.322 102.812C152.202 102.915 152.047 102.97 151.889 102.967Z" fill="#FAFAFA"/>
<path opacity="0.2" d="M146.63 74.7936L141.792 78.9208C141.999 79.6947 142.138 80.4856 142.206 81.284C144.026 81.0208 146.535 79.016 146.731 77.1064C146.838 76.3357 146.804 75.552 146.63 74.7936Z" fill="black"/>
<path d="M155.607 63.84C154.257 70.8792 153.837 73.8864 149.783 77.0616C143.684 81.844 135.335 78.6408 134.562 71.344C133.862 64.7752 136.186 54.3704 143.522 52.444C145.13 52.0168 146.82 52.007 148.432 52.4156C150.044 52.8242 151.526 53.6375 152.736 54.7787C153.946 55.9199 154.845 57.3511 155.347 58.9368C155.85 60.5225 155.939 62.2101 155.607 63.84Z" fill="#B55B52"/>
<path d="M151.603 58.632C150.729 63.0392 150.522 68.88 154.56 68.88C158.597 68.88 161.761 62.0088 158.278 56.6272C154.795 51.2456 152.112 56.0336 151.603 58.632Z" fill="#263238"/>
<path d="M158.58 59.1752C158.58 63.9688 152.544 61.6 149.872 59.5336C147.201 57.4672 147.072 57.6912 142.122 57.6856C137.172 57.68 136.18 57.3384 134.719 54.9752C133.257 52.612 133.392 51.0552 136.684 51.5536C139.977 52.052 137.211 48.692 139.664 46.8272C142.116 44.9624 145.023 45.4328 148.377 49.6888C151.732 53.9448 158.58 50.8704 158.58 59.1752Z" fill="#263238"/>
<path d="M156.808 70.1032C157.443 67.9366 156.82 65.8467 155.416 65.4351C154.012 65.0235 152.359 66.4462 151.724 68.6128C151.089 70.7793 151.712 72.8693 153.116 73.2809C154.52 73.6924 156.173 72.2697 156.808 70.1032Z" fill="white"/>
<path d="M145.6 75.5216C144.3 75.5214 143.014 75.2565 141.82 74.7432C141.794 74.7328 141.771 74.7174 141.751 74.6979C141.732 74.6784 141.716 74.6551 141.706 74.6296C141.695 74.604 141.69 74.5766 141.69 74.549C141.691 74.5214 141.697 74.4941 141.708 74.4688C141.731 74.4177 141.773 74.3776 141.825 74.3567C141.877 74.3359 141.935 74.3359 141.988 74.3568C143.113 74.8397 144.323 75.092 145.548 75.0987C146.772 75.1055 147.986 74.8665 149.116 74.396C150.216 73.9461 151.214 73.2808 152.053 72.4393C152.892 71.5978 153.553 70.5971 154 69.496C155.68 64.6856 157.393 58.6824 155.411 54.936C155.012 54.2068 154.46 53.5726 153.793 53.0767C153.126 52.5808 152.36 52.2351 151.547 52.0632C151.493 52.0487 151.447 52.0136 151.418 51.9654C151.39 51.9172 151.382 51.8598 151.396 51.8056C151.41 51.7516 151.445 51.7055 151.493 51.6772C151.542 51.6489 151.599 51.6407 151.653 51.6544C152.522 51.8414 153.34 52.2132 154.052 52.7447C154.765 53.2762 155.354 53.9548 155.78 54.7344C157.841 58.604 156.122 64.7248 154.392 69.6248C153.922 70.7811 153.226 71.8318 152.344 72.7147C151.462 73.5976 150.412 74.295 149.256 74.7656C148.098 75.2524 146.856 75.5091 145.6 75.5216Z" fill="white"/>
<path opacity="0.6" d="M156.604 70.1232C156.105 71.8032 154.963 72.9848 154.05 72.7216C153.137 72.4584 152.801 70.8568 153.3 69.1544C153.798 67.452 154.94 66.2872 155.853 66.556C156.766 66.8248 157.102 68.4208 156.604 70.1232Z" fill="#00856F"/>
<path d="M142.401 73.8166L140.207 73.3933C139.821 73.3189 139.448 73.5713 139.374 73.9569L139.35 74.0834C139.275 74.4691 139.528 74.842 139.913 74.9164L142.107 75.3397C142.493 75.4141 142.866 75.1618 142.94 74.7761L142.965 74.6497C143.039 74.264 142.787 73.891 142.401 73.8166Z" fill="white"/>
<path d="M139.535 64.428C139.535 64.428 138.235 66.7856 137.003 67.844C137.67 68.656 139.014 68.4992 139.014 68.4992L139.535 64.428Z" fill="#A02724"/>
<path d="M140.772 71.512H140.823C142.092 71.6122 143.353 71.2281 144.351 70.4368C144.371 70.4159 144.383 70.3877 144.383 70.3584C144.383 70.3291 144.371 70.3009 144.351 70.28C144.341 70.27 144.329 70.2621 144.316 70.2567C144.303 70.2513 144.289 70.2485 144.275 70.2485C144.261 70.2485 144.247 70.2513 144.234 70.2567C144.221 70.2621 144.209 70.27 144.199 70.28C143.247 71.029 142.048 71.3945 140.839 71.3048C140.825 71.3024 140.81 71.3031 140.796 71.3066C140.782 71.3102 140.769 71.3167 140.757 71.3256C140.746 71.3345 140.736 71.3458 140.729 71.3586C140.722 71.3714 140.718 71.3855 140.716 71.4C140.713 71.4221 140.717 71.4446 140.727 71.4646C140.737 71.4845 140.753 71.501 140.772 71.512Z" fill="#263238"/>
<path d="M147.179 61.656C147.21 61.6736 147.246 61.6829 147.282 61.6829C147.319 61.6829 147.354 61.6736 147.386 61.656C147.434 61.6239 147.468 61.5746 147.48 61.5183C147.493 61.4619 147.483 61.4029 147.453 61.3536C147.185 60.9051 146.815 60.5269 146.371 60.2503C145.928 59.9738 145.426 59.8068 144.905 59.7632C144.847 59.7632 144.791 59.786 144.749 59.8268C144.707 59.8676 144.683 59.9232 144.681 59.9816C144.681 60.0385 144.703 60.0933 144.743 60.1341C144.783 60.1749 144.837 60.1985 144.894 60.2C145.342 60.2427 145.775 60.3908 146.155 60.6322C146.536 60.8735 146.854 61.2013 147.084 61.5888C147.109 61.6194 147.142 61.6426 147.179 61.656Z" fill="#263238"/>
<path d="M143.97 64.5232C143.875 65.0832 143.489 65.5144 143.108 65.4528C142.727 65.3912 142.509 64.8928 142.604 64.288C142.699 63.6832 143.091 63.2968 143.466 63.3584C143.841 63.42 144.071 63.9464 143.97 64.5232Z" fill="#263238"/>
<path d="M137.44 63.4144C137.345 63.9744 136.959 64.4056 136.578 64.344C136.197 64.2824 135.979 63.756 136.074 63.1792C136.169 62.6024 136.561 62.1824 136.936 62.2496C137.312 62.3168 137.541 62.832 137.44 63.4144Z" fill="#263238"/>
<path d="M137.099 62.3112L135.777 61.6728C135.777 61.6728 136.304 62.8768 137.099 62.3112Z" fill="#263238"/>
<path d="M143.628 63.42L142.307 62.7872C142.307 62.7872 142.833 63.9912 143.628 63.42Z" fill="#263238"/>
<path d="M135.223 59.5112C135.257 59.5314 135.296 59.5421 135.335 59.5421C135.374 59.5421 135.413 59.5314 135.447 59.5112C135.793 59.2207 136.203 59.0181 136.644 58.9206C137.085 58.8231 137.542 58.8336 137.978 58.9512C138.033 58.9705 138.094 58.9672 138.146 58.942C138.199 58.9168 138.239 58.8718 138.258 58.8168C138.278 58.7618 138.274 58.7015 138.249 58.649C138.224 58.5965 138.179 58.5561 138.124 58.5368C137.621 58.3937 137.092 58.3739 136.58 58.4792C136.068 58.5845 135.589 58.8117 135.184 59.1416C135.16 59.1581 135.141 59.1793 135.126 59.2039C135.111 59.2284 135.102 59.2558 135.098 59.2842C135.094 59.3126 135.096 59.3415 135.105 59.369C135.113 59.3965 135.126 59.422 135.145 59.444C135.163 59.4738 135.191 59.4973 135.223 59.5112Z" fill="#263238"/>
<path d="M128.1 139.507C128.1 139.507 128.021 135.498 129.22 132.367H158.536C158.536 132.367 161.173 136.623 161.856 139.507H128.1Z" fill="#00856F"/>
<path d="M158.978 130.648L159.207 133.269C159.314 133.476 159.073 133.683 158.731 133.683H129.051C128.788 133.683 128.57 133.554 128.553 133.386L128.284 130.76C128.284 130.581 128.497 130.424 128.788 130.424H158.468C158.565 130.414 158.663 130.429 158.753 130.468C158.842 130.507 158.92 130.569 158.978 130.648Z" fill="#00856F"/>
<path opacity="0.3" d="M158.978 130.648L159.207 133.269C159.314 133.476 159.073 133.683 158.731 133.683H129.051C128.788 133.683 128.57 133.554 128.553 133.386L128.284 130.76C128.284 130.581 128.497 130.424 128.788 130.424H158.468C158.565 130.414 158.663 130.429 158.753 130.468C158.842 130.507 158.92 130.569 158.978 130.648Z" fill="#FAFAFA"/>
<path d="M154.985 133.963H155.78C155.943 133.963 156.06 133.885 156.049 133.784L155.68 130.374C155.68 130.273 155.528 130.194 155.372 130.194H154.56C154.397 130.194 154.28 130.273 154.291 130.374L154.66 133.784C154.688 133.885 154.828 133.963 154.985 133.963Z" fill="#00856F"/>
<path d="M131.303 133.963H132.098C132.255 133.963 132.378 133.885 132.367 133.784L131.992 130.374C131.992 130.273 131.846 130.194 131.684 130.194H130.889C130.732 130.194 130.609 130.273 130.62 130.374L130.995 133.784C131.006 133.885 131.146 133.963 131.303 133.963Z" fill="#00856F"/>
<path d="M143.147 133.963H143.92C144.076 133.963 144.2 133.885 144.188 133.784L143.813 130.374C143.813 130.273 143.662 130.194 143.505 130.194H142.71C142.553 130.194 142.43 130.273 142.441 130.374L142.816 133.784C142.85 133.885 142.984 133.963 143.147 133.963Z" fill="#00856F"/>
<path d="M166.241 96.88C167.529 101.061 168.767 105.265 169.954 109.491L171.741 115.797L172.631 118.933L172.855 119.706L172.967 120.092L172.995 120.182L172.905 120.042C172.764 119.839 172.59 119.661 172.39 119.515C171.952 119.196 171.431 119.012 170.889 118.983C170.48 118.964 170.073 119.045 169.702 119.218C169.299 119.437 169.338 119.487 169.372 119.448C169.467 119.365 169.553 119.274 169.629 119.174C169.893 118.844 170.136 118.498 170.357 118.138C170.85 117.331 171.337 116.424 171.797 115.494C172.749 113.635 173.605 111.664 174.473 109.682C175.341 107.699 176.153 105.694 176.993 103.673C177.833 101.651 178.634 99.6184 179.463 97.6136L183.041 98.6776C182.112 103.046 181.025 107.335 179.681 111.608C179.021 113.753 178.287 115.875 177.441 118.026C177.005 119.101 176.54 120.176 175.963 121.29C175.655 121.893 175.311 122.477 174.933 123.038C174.697 123.389 174.435 123.723 174.149 124.034C173.694 124.55 173.142 124.971 172.525 125.272C171.908 125.572 171.227 125.714 170.542 125.686C169.73 125.641 168.95 125.355 168.302 124.863C167.889 124.552 167.531 124.173 167.244 123.743C167.062 123.467 166.903 123.177 166.768 122.875C166.717 122.752 166.661 122.623 166.622 122.511L166.516 122.237L166.37 121.839L166.079 121.05C165.698 120.002 165.312 118.955 164.959 117.908C164.242 115.814 163.525 113.725 162.853 111.625C161.479 107.429 160.199 103.212 159.012 98.9744L166.241 96.88Z" fill="#B65B52"/>
<path d="M163.732 88.5808C166.672 89.4712 171.169 101.002 171.169 101.002L159.773 109.15C159.773 109.15 154.649 99.2936 155.881 95.4968C157.169 91.5432 160.384 87.5616 163.732 88.5808Z" fill="#00856F"/>
<path opacity="0.5" d="M163.732 88.5808C166.672 89.4712 171.169 101.002 171.169 101.002L159.773 109.15C159.773 109.15 154.649 99.2936 155.881 95.4968C157.169 91.5432 160.384 87.5616 163.732 88.5808Z" fill="white"/>
<path d="M179.592 99.148L178.029 92.26L184.525 95.6872C184.525 95.6872 184.604 100.324 181.983 101.786L179.592 99.148Z" fill="#B55B52"/>
<path d="M180.751 86.7944L184.895 89.7344L184.525 95.6872L178.029 92.26L180.751 86.7944Z" fill="#B55B52"/>
<path d="M64.4001 52.1304H109.76C110.626 52.1219 111.485 52.2931 112.281 52.6333C113.077 52.9735 113.795 53.4753 114.387 54.1069C114.98 54.7384 115.435 55.4861 115.724 56.3026C116.013 57.1191 116.129 57.9866 116.066 58.8504L114.8 79.38C114.661 81.1873 113.853 82.8776 112.533 84.1204C111.214 85.3632 109.478 86.0691 107.666 86.1H102.413L104.558 93.1504L94.2985 86.1H62.3225C61.4564 86.1085 60.598 85.9373 59.8016 85.5971C59.0051 85.2569 58.2879 84.7551 57.6952 84.1236C57.1026 83.492 56.6474 82.7443 56.3585 81.9278C56.0697 81.1113 55.9533 80.2438 56.0169 79.38L57.2713 58.8504C57.4104 57.0441 58.2179 55.3545 59.5362 54.1119C60.8545 52.8692 62.5887 52.1627 64.4001 52.1304Z" fill="#00856F"/>
<path d="M105.605 62.8824H67.2448C67.082 62.8815 66.921 62.8468 66.7723 62.7805C66.6235 62.7142 66.4902 62.6177 66.3807 62.4971C66.2712 62.3766 66.1879 62.2346 66.1362 62.0801C66.0844 61.9257 66.0653 61.7622 66.08 61.6C66.1051 61.2601 66.2563 60.9419 66.5039 60.7078C66.7515 60.4736 67.0777 60.3405 67.4184 60.3344H105.784C105.946 60.3348 106.106 60.3684 106.255 60.4333C106.403 60.4982 106.537 60.593 106.647 60.7117C106.757 60.8304 106.842 60.9705 106.896 61.1233C106.95 61.2761 106.972 61.4384 106.96 61.6C106.94 61.9462 106.789 62.2717 106.537 62.51C106.285 62.7484 105.952 62.8816 105.605 62.8824Z" fill="white"/>
<path d="M82.8803 70.3808H66.7859C66.6229 70.382 66.4615 70.3494 66.3117 70.2852C66.1619 70.221 66.027 70.1265 65.9155 70.0076C65.804 69.8887 65.7183 69.7481 65.6638 69.5945C65.6093 69.4409 65.5871 69.2777 65.5987 69.1152C65.6239 68.7744 65.7758 68.4554 66.0246 68.2211C66.2734 67.9868 66.601 67.8542 66.9427 67.8496H83.0539C83.2173 67.8476 83.3794 67.8796 83.5299 67.9434C83.6803 68.0073 83.8159 68.1017 83.928 68.2207C84.0401 68.3396 84.1263 68.4805 84.1811 68.6345C84.236 68.7885 84.2583 68.9521 84.2467 69.1152C84.2199 69.4593 84.0644 69.7808 83.8111 70.0153C83.5579 70.2499 83.2255 70.3804 82.8803 70.3808Z" fill="white"/>
<path d="M96.6728 77.8792H66.3264C66.1635 77.8804 66.002 77.8478 65.8522 77.7836C65.7024 77.7194 65.5675 77.6249 65.456 77.506C65.3445 77.3872 65.2588 77.2465 65.2043 77.0929C65.1498 76.9394 65.1276 76.7761 65.1392 76.6136C65.1631 76.2723 65.3147 75.9526 65.5638 75.718C65.8129 75.4835 66.1411 75.3514 66.4832 75.348H96.8296C96.9928 75.346 97.1547 75.3779 97.3049 75.4419C97.4551 75.5058 97.5903 75.6003 97.702 75.7193C97.8136 75.8384 97.8993 75.9794 97.9535 76.1333C98.0077 76.2873 98.0293 76.4508 98.0168 76.6136C97.9916 76.9544 97.8397 77.2734 97.5909 77.5077C97.3421 77.742 97.0145 77.8745 96.6728 77.8792Z" fill="white"/>
<path d="M94.7015 70.3808H88.3567C88.1937 70.382 88.0323 70.3494 87.8825 70.2852C87.7327 70.221 87.5978 70.1265 87.4863 70.0076C87.3748 69.8887 87.2891 69.7481 87.2346 69.5945C87.1801 69.4409 87.1579 69.2777 87.1695 69.1152C87.1959 68.7748 87.3483 68.4566 87.5968 68.2225C87.8453 67.9885 88.1722 67.8555 88.5135 67.8496H94.8527C95.0159 67.8475 95.1777 67.8795 95.3279 67.9434C95.4781 68.0074 95.6134 68.1019 95.725 68.2209C95.8367 68.34 95.9224 68.4809 95.9766 68.6349C96.0308 68.7889 96.0523 68.9524 96.0399 69.1152C96.0148 69.455 95.8636 69.7733 95.616 70.0074C95.3684 70.2416 95.0422 70.3747 94.7015 70.3808Z" fill="white"/>
<path d="M127.562 15.2264H102.833C101.423 15.2476 100.071 15.7954 99.0444 16.7622C98.0175 17.7289 97.3893 19.0448 97.2832 20.4512L96.32 36.4336C96.272 37.1056 96.3638 37.7802 96.5894 38.415C96.8151 39.0497 97.1698 39.6308 97.6312 40.1217C98.0926 40.6126 98.6507 41.0025 99.2703 41.267C99.8899 41.5315 100.558 41.6648 101.231 41.6584H105.28L102.939 47.1464L111.597 41.6584H125.944C127.354 41.6372 128.706 41.0894 129.732 40.1227C130.759 39.1559 131.388 37.84 131.494 36.4336L132.474 20.4512C132.522 19.7792 132.43 19.1046 132.204 18.4699C131.979 17.8351 131.624 17.254 131.162 16.7631C130.701 16.2723 130.143 15.8823 129.523 15.6178C128.904 15.3533 128.236 15.2201 127.562 15.2264Z" fill="#00856F"/>
<g opacity="0.5">
<path opacity="0.5" d="M127.562 15.2264H102.833C101.423 15.2476 100.071 15.7954 99.0444 16.7622C98.0175 17.7289 97.3893 19.0448 97.2832 20.4512L96.32 36.4336C96.272 37.1056 96.3638 37.7802 96.5894 38.415C96.8151 39.0497 97.1698 39.6308 97.6312 40.1217C98.0926 40.6126 98.6507 41.0025 99.2703 41.267C99.8899 41.5315 100.558 41.6648 101.231 41.6584H105.28L102.939 47.1464L111.597 41.6584H125.944C127.354 41.6372 128.706 41.0894 129.732 40.1227C130.759 39.1559 131.388 37.84 131.494 36.4336L132.474 20.4512C132.522 19.7792 132.43 19.1046 132.204 18.4699C131.979 17.8351 131.624 17.254 131.162 16.7631C130.701 16.2723 130.143 15.8823 129.523 15.6178C128.904 15.3533 128.236 15.2201 127.562 15.2264Z" fill="#FAFAFA"/>
</g>
<path d="M115.64 31.0576C115.555 31.4096 115.354 31.7228 115.07 31.9472C114.786 32.1715 114.434 32.2941 114.072 32.2952H112.611C112.611 31.8808 112.644 31.6288 112.65 31.5392C112.671 30.732 112.878 29.9406 113.255 29.2264C113.784 28.4302 114.456 27.7391 115.237 27.188C115.86 26.7366 116.448 26.2386 116.995 25.6984C117.286 25.3546 117.459 24.9267 117.488 24.4776C117.51 24.18 117.464 23.8814 117.352 23.6046C117.24 23.3279 117.067 23.0806 116.844 22.8816C116.301 22.4162 115.598 22.1793 114.884 22.2208C114.133 22.2003 113.399 22.4463 112.812 22.9152C112.463 23.203 112.178 23.5594 111.972 23.9624C111.821 24.2567 111.586 24.4999 111.297 24.6613C111.008 24.8227 110.678 24.8951 110.348 24.8696C110.111 24.8402 109.885 24.7514 109.691 24.6114C109.497 24.4714 109.341 24.2848 109.238 24.0687C109.136 23.8527 109.089 23.6142 109.103 23.3754C109.117 23.1365 109.191 22.9051 109.318 22.7024C109.656 22.1353 110.09 21.6312 110.6 21.2128C111.814 20.2372 113.34 19.7339 114.895 19.796C116.727 19.796 118.149 20.272 119.174 21.2296C119.654 21.6421 120.031 22.1601 120.277 22.7431C120.523 23.3261 120.63 23.9581 120.591 24.5896C120.539 25.3073 120.291 25.997 119.874 26.5832C119.087 27.5518 118.178 28.4139 117.169 29.148C116.646 29.513 116.195 29.9703 115.836 30.4976C115.745 30.6742 115.679 30.8627 115.64 31.0576ZM112.443 35.0784V34.8992C112.472 34.4945 112.653 34.1156 112.948 33.8377C113.244 33.5597 113.633 33.4029 114.039 33.3984H114.24C114.434 33.3956 114.627 33.4331 114.806 33.5086C114.984 33.5842 115.146 33.6961 115.279 33.8372C115.412 33.9783 115.514 34.1456 115.58 34.3284C115.645 34.5112 115.671 34.7056 115.657 34.8992V35.0784C115.628 35.4836 115.447 35.8631 115.152 36.142C114.857 36.4208 114.467 36.5788 114.061 36.5848H113.882C113.685 36.5909 113.49 36.5555 113.308 36.4811C113.126 36.4066 112.962 36.2947 112.826 36.1526C112.691 36.0105 112.586 35.8414 112.52 35.6563C112.454 35.4712 112.428 35.2743 112.443 35.0784Z" fill="white"/>
</svg>
