<svg width="280" height="209" viewBox="0 0 280 209" fill="none" xmlns="http://www.w3.org/2000/svg">
<path d="M280 183.344H0V183.484H280V183.344Z" fill="#EBEBEB"/>
<path d="M251.944 192.354H233.397V192.494H251.944V192.354Z" fill="#EBEBEB"/>
<path d="M185.483 193.878H180.617V194.018H185.483V193.878Z" fill="#EBEBEB"/>
<path d="M232.837 187.158H222.09V187.298H232.837V187.158Z" fill="#EBEBEB"/>
<path d="M53.5638 188.098H29.3774V188.238H53.5638V188.098Z" fill="#EBEBEB"/>
<path d="M62.0985 188.098H58.5537V188.238H62.0985V188.098Z" fill="#EBEBEB"/>
<path d="M126.084 190.462H73.623V190.602H126.084V190.462Z" fill="#EBEBEB"/>
<path d="M132.72 158.368H24.5895C23.7424 158.367 22.9305 158.029 22.332 157.429C21.7336 156.83 21.3975 156.017 21.3975 155.17V3.1696C21.4048 2.32737 21.7442 1.52207 22.3419 0.928602C22.9395 0.335137 23.7472 0.00144278 24.5895 0H132.72C133.568 0 134.381 0.336889 134.981 0.936556C135.581 1.53622 135.917 2.34954 135.917 3.1976V155.17C135.917 156.018 135.581 156.832 134.981 157.431C134.381 158.031 133.568 158.368 132.72 158.368ZM24.5895 0.112C23.7795 0.113484 23.0032 0.436276 22.431 1.00953C21.8588 1.58278 21.5375 2.35964 21.5375 3.1696V155.17C21.5375 155.98 21.8588 156.757 22.431 157.33C23.0032 157.904 23.7795 158.227 24.5895 158.228H132.72C133.53 158.227 134.307 157.904 134.88 157.331C135.453 156.758 135.776 155.981 135.777 155.17V3.1696C135.776 2.35913 135.453 1.58228 134.88 1.00919C134.307 0.436095 133.53 0.113481 132.72 0.112H24.5895Z" fill="#EBEBEB"/>
<path d="M253.854 158.368H145.718C144.87 158.367 144.058 158.029 143.458 157.43C142.859 156.83 142.522 156.018 142.52 155.17V3.1696C142.529 2.32686 142.869 1.52156 143.468 0.928252C144.067 0.334941 144.875 0.00142704 145.718 0H253.854C254.695 0.00291452 255.501 0.33726 256.098 0.930568C256.694 1.52388 257.033 2.32834 257.04 3.1696V155.17C257.04 156.017 256.705 156.828 256.107 157.427C255.51 158.027 254.7 158.365 253.854 158.368ZM145.718 0.112C144.907 0.113481 144.13 0.436095 143.557 1.00919C142.984 1.58228 142.661 2.35913 142.66 3.1696V155.17C142.661 155.981 142.984 156.758 143.557 157.331C144.13 157.904 144.907 158.227 145.718 158.228H253.854C254.664 158.227 255.441 157.904 256.014 157.331C256.587 156.758 256.91 155.981 256.911 155.17V3.1696C256.91 2.35913 256.587 1.58228 256.014 1.00919C255.441 0.436095 254.664 0.113481 253.854 0.112H145.718Z" fill="#EBEBEB"/>
<path d="M92.1144 6.01999H52.2144V141.378H92.1144V6.01999Z" fill="#FAFAFA"/>
<path d="M86.1728 6.01999H83.8432L69.9272 141.378H72.2568L86.1728 6.01999Z" fill="#F5F5F5"/>
<path d="M91.4085 6.5408H51.9565V7.7336H91.4085V6.5408Z" fill="#E0E0E0"/>
<path d="M91.4085 140.19H51.9565V142.744H91.4085V140.19Z" fill="#EBEBEB"/>
<path d="M90.7538 142.632H53.4746V142.744H90.7538V142.632Z" fill="#EBEBEB"/>
<path d="M53.4746 6.54079H90.7538V142.632H92.9882V4.86639H51.2402V142.632H53.4746V6.54079Z" fill="#EBEBEB"/>
<path d="M136.517 6.01999H96.6167V141.378H136.517V6.01999Z" fill="#FAFAFA"/>
<path d="M125.446 6.01999H112.728L98.812 141.378H111.53L125.446 6.01999Z" fill="#F5F5F5"/>
<path d="M136.931 6.5408H96.3594V7.7336H136.931V6.5408Z" fill="#E0E0E0"/>
<path d="M136.931 140.19H96.3594V142.744H136.931V140.19Z" fill="#EBEBEB"/>
<path d="M135.156 142.632H97.877V142.744H135.156V142.632Z" fill="#EBEBEB"/>
<path d="M97.877 6.54079H135.156V142.632H137.385V4.86639H95.6426V142.632H97.877V6.54079Z" fill="#EBEBEB"/>
<path d="M179.794 6.01999H141.014V141.378H179.794V6.01999Z" fill="#FAFAFA"/>
<path d="M162.988 6.01999H160.658L146.742 141.378H149.072L162.988 6.01999Z" fill="#F5F5F5"/>
<path d="M180.214 6.5408H140.762V7.7336H180.214V6.5408Z" fill="#E0E0E0"/>
<path d="M180.214 140.19H140.762V142.744H180.214V140.19Z" fill="#EBEBEB"/>
<path d="M179.558 142.632H142.279V142.744H179.558V142.632Z" fill="#EBEBEB"/>
<path d="M142.279 6.54079H179.553V142.632H181.787V4.86639H140.045V142.632H142.279V6.54079Z" fill="#EBEBEB"/>
<path d="M225.316 6.01999H185.416V141.378H225.316V6.01999Z" fill="#FAFAFA"/>
<path d="M221.413 6.01999H208.695L194.773 141.378H207.497L221.413 6.01999Z" fill="#F5F5F5"/>
<path d="M224.61 6.5408H185.158V7.7336H224.61V6.5408Z" fill="#E0E0E0"/>
<path d="M224.61 140.19H185.158V142.744H224.61V140.19Z" fill="#EBEBEB"/>
<path d="M186.676 6.54079H223.955V142.632H226.19V4.86639H184.447V142.632H186.676V6.54079Z" fill="#EBEBEB"/>
<path d="M223.955 142.632H186.676V142.744H223.955V142.632Z" fill="#EBEBEB"/>
<path d="M82.5664 110.242H65.2456V140.196H82.5664V110.242Z" fill="#EBEBEB"/>
<path d="M79.2403 106.053V113.568H77.8795H69.9387H68.5723V106.053H79.2403Z" fill="#EBEBEB"/>
<path d="M79.2399 113.568H81.4575V111.35H79.2399V113.568Z" fill="#FAFAFA"/>
<path d="M74.9504 113.568H77.168V111.35H74.9504V113.568Z" fill="#FAFAFA"/>
<path d="M70.6555 113.568H72.873V111.35H70.6555V113.568Z" fill="#FAFAFA"/>
<path d="M66.36 113.568H68.5776V111.35H66.36V113.568Z" fill="#F0F0F0"/>
<path d="M79.2399 117.594H81.4575V115.377H79.2399V117.594Z" fill="#F0F0F0"/>
<path d="M74.9504 117.594H77.168V115.377H74.9504V117.594Z" fill="#F0F0F0"/>
<path d="M70.6555 117.594H72.873V115.377H70.6555V117.594Z" fill="#FAFAFA"/>
<path d="M66.36 117.594H68.5776V115.377H66.36V117.594Z" fill="#FAFAFA"/>
<path d="M79.2399 121.626H81.4575V119.409H79.2399V121.626Z" fill="#F0F0F0"/>
<path d="M74.9504 121.626H77.168V119.409H74.9504V121.626Z" fill="#FAFAFA"/>
<path d="M70.6555 121.626H72.873V119.409H70.6555V121.626Z" fill="#FAFAFA"/>
<path d="M74.9504 110.085H77.168V107.867H74.9504V110.085Z" fill="#FAFAFA"/>
<path d="M70.6555 110.085H72.873V107.867H70.6555V110.085Z" fill="#F0F0F0"/>
<path d="M66.36 121.626H68.5776V119.409H66.36V121.626Z" fill="#F0F0F0"/>
<path d="M79.2399 125.658H81.4575V123.441H79.2399V125.658Z" fill="#FAFAFA"/>
<path d="M74.9504 125.658H77.168V123.441H74.9504V125.658Z" fill="#F0F0F0"/>
<path d="M70.6555 125.658H72.873V123.441H70.6555V125.658Z" fill="#F0F0F0"/>
<path d="M66.36 125.658H68.5776V123.441H66.36V125.658Z" fill="#FAFAFA"/>
<path d="M79.2399 129.69H81.4575V127.473H79.2399V129.69Z" fill="#F0F0F0"/>
<path d="M74.9504 129.69H77.168V127.473H74.9504V129.69Z" fill="#FAFAFA"/>
<path d="M70.6555 129.69H72.873V127.473H70.6555V129.69Z" fill="#FAFAFA"/>
<path d="M66.36 129.69H68.5776V127.473H66.36V129.69Z" fill="#F0F0F0"/>
<path d="M79.2399 133.717H81.4575V131.499H79.2399V133.717Z" fill="#F0F0F0"/>
<path d="M74.9504 133.717H77.168V131.499H74.9504V133.717Z" fill="#FAFAFA"/>
<path d="M70.6555 133.717H72.873V131.499H70.6555V133.717Z" fill="#F0F0F0"/>
<path d="M66.36 133.717H68.5776V131.499H66.36V133.717Z" fill="#FAFAFA"/>
<path d="M79.2399 137.749H81.4575V135.531H79.2399V137.749Z" fill="#FAFAFA"/>
<path d="M74.9504 137.749H77.168V135.531H74.9504V137.749Z" fill="#FAFAFA"/>
<path d="M70.6555 137.749H72.873V135.531H70.6555V137.749Z" fill="#F0F0F0"/>
<path d="M66.36 137.749H68.5776V135.531H66.36V137.749Z" fill="#F0F0F0"/>
<path d="M204.59 121.15H189.073V140.19H204.59V121.15Z" fill="#F0F0F0"/>
<path d="M190.422 123.267H194.029H195.026H196.017V125.25H195.026H194.029H190.422V123.267Z" fill="#E6E6E6"/>
<path d="M190.422 127.114H194.029H195.026H196.017V129.102H195.026H194.029H190.422V127.114Z" fill="#FAFAFA"/>
<path d="M190.422 130.962H194.029H195.026H196.017V132.95H195.026H194.029H190.422V130.962Z" fill="#E6E6E6"/>
<path d="M190.422 134.809H194.029H195.563H196.017V136.797H195.563H194.029H190.422V134.809Z" fill="#FAFAFA"/>
<path d="M197.641 123.267H201.253H202.244H203.235V125.25H202.244H201.253H197.641V123.267Z" fill="#FAFAFA"/>
<path d="M197.641 127.114H201.253H202.653H203.235V129.102H202.653H201.253H197.641V127.114Z" fill="#FAFAFA"/>
<path d="M197.641 130.962H201.253H202.244H203.235V132.95H202.244H201.253H197.641V130.962Z" fill="#E6E6E6"/>
<path d="M197.641 134.809H201.253H202.244H203.235V136.797H202.244H201.253H197.641V134.809Z" fill="#FAFAFA"/>
<path d="M129.814 128.363H115.713V140.196H129.814V128.363Z" fill="#F0F0F0"/>
<path d="M127.109 131.645H128.912V129.842H127.109V131.645Z" fill="#FAFAFA"/>
<path d="M123.614 131.645H125.417V129.842H123.614V131.645Z" fill="#FAFAFA"/>
<path d="M120.114 131.645H121.917V129.842H120.114V131.645Z" fill="#FAFAFA"/>
<path d="M116.62 131.645H118.423V129.842H116.62V131.645Z" fill="#FAFAFA"/>
<path d="M127.109 134.921H128.912V133.118H127.109V134.921Z" fill="#FAFAFA"/>
<path d="M123.614 134.921H125.417V133.118H123.614V134.921Z" fill="#FAFAFA"/>
<path d="M120.114 134.921H121.917V133.118H120.114V134.921Z" fill="#FAFAFA"/>
<path d="M116.62 134.921H118.423V133.118H116.62V134.921Z" fill="#E6E6E6"/>
<path d="M127.109 138.202H128.912V136.399H127.109V138.202Z" fill="#E6E6E6"/>
<path d="M123.614 138.202H125.417V136.399H123.614V138.202Z" fill="#E6E6E6"/>
<path d="M120.114 138.202H121.917V136.399H120.114V138.202Z" fill="#FAFAFA"/>
<path d="M116.62 138.202H118.423V136.399H116.62V138.202Z" fill="#E6E6E6"/>
<path d="M113.803 119.616H99.7021V140.196H113.803V119.616Z" fill="#F0F0F0"/>
<path d="M112.902 120.518H107.599V125.602H112.902V120.518Z" fill="#FAFAFA"/>
<path d="M105.907 120.518H100.604V125.602H105.907V120.518Z" fill="#FAFAFA"/>
<path d="M112.902 127.075H107.599V132.16H112.902V127.075Z" fill="#FAFAFA"/>
<path d="M105.907 127.075H100.604V132.16H105.907V127.075Z" fill="#FAFAFA"/>
<path d="M112.902 133.633H107.599V138.718H112.902V133.633Z" fill="#FAFAFA"/>
<path d="M105.907 133.633H100.604V138.718H105.907V133.633Z" fill="#FAFAFA"/>
<path d="M140 208.634C199.966 208.634 248.578 205.795 248.578 202.294C248.578 198.793 199.966 195.955 140 195.955C80.0336 195.955 31.4214 198.793 31.4214 202.294C31.4214 205.795 80.0336 208.634 140 208.634Z" fill="#F5F5F5"/>
<path d="M211.959 37V160.334L197.119 175.174H111.209V37H211.959Z" fill="#00856F"/>
<path opacity="0.8" d="M211.959 37V160.334L197.119 175.174H111.209V37H211.959Z" fill="white"/>
<path opacity="0.2" d="M197.119 175.174V160.771H211.959L197.41 175.32" fill="black"/>
<path opacity="0.1" d="M149.334 48.9784H121.547C121.156 48.9784 120.782 48.8232 120.506 48.547C120.229 48.2708 120.074 47.8962 120.074 47.5056C120.073 47.3117 120.111 47.1196 120.185 46.9403C120.258 46.7609 120.367 46.5979 120.504 46.4605C120.64 46.3232 120.803 46.2142 120.982 46.1398C121.161 46.0655 121.353 46.0272 121.547 46.0272H149.334C149.725 46.0287 150.1 46.1851 150.376 46.4622C150.652 46.7393 150.807 47.1145 150.807 47.5056C150.807 47.8962 150.652 48.2708 150.376 48.547C150.099 48.8232 149.725 48.9784 149.334 48.9784Z" fill="black"/>
<path opacity="0.1" d="M199.734 60.9288H132.747C132.553 60.9288 132.361 60.8905 132.182 60.8162C132.003 60.7418 131.841 60.6328 131.704 60.4955C131.567 60.3581 131.459 60.1951 131.385 60.0157C131.311 59.8364 131.274 59.6443 131.274 59.4504C131.274 59.0598 131.43 58.6852 131.706 58.409C131.982 58.1328 132.357 57.9776 132.747 57.9776H199.734C200.125 57.9776 200.5 58.1328 200.776 58.409C201.052 58.6852 201.207 59.0598 201.207 59.4504C201.207 59.8415 201.052 60.2167 200.776 60.4938C200.5 60.7709 200.126 60.9273 199.734 60.9288Z" fill="black"/>
<path opacity="0.1" d="M199.734 66.736H121.547C121.156 66.736 120.782 66.5808 120.506 66.3046C120.229 66.0284 120.074 65.6538 120.074 65.2632C120.073 65.0693 120.111 64.8772 120.185 64.6978C120.258 64.5185 120.367 64.3555 120.504 64.2181C120.64 64.0808 120.803 63.9718 120.982 63.8974C121.161 63.8231 121.353 63.7848 121.547 63.7848H199.734C200.125 63.7863 200.5 63.9427 200.776 64.2198C201.052 64.4969 201.207 64.8721 201.207 65.2632C201.207 65.6538 201.052 66.0284 200.776 66.3046C200.499 66.5808 200.125 66.736 199.734 66.736Z" fill="black"/>
<path opacity="0.1" d="M199.734 73.2992H121.547C121.353 73.2992 121.161 73.2609 120.982 73.1866C120.803 73.1122 120.64 73.0032 120.504 72.8659C120.367 72.7285 120.258 72.5655 120.185 72.3862C120.111 72.2068 120.073 72.0147 120.074 71.8208C120.074 71.4302 120.229 71.0556 120.506 70.7794C120.782 70.5032 121.156 70.348 121.547 70.348H199.734C200.125 70.348 200.499 70.5032 200.776 70.7794C201.052 71.0556 201.207 71.4302 201.207 71.8208C201.207 72.2119 201.052 72.5871 200.776 72.8642C200.5 73.1413 200.125 73.2977 199.734 73.2992Z" fill="black"/>
<path opacity="0.1" d="M199.734 79.8568H121.547C121.156 79.8568 120.782 79.7016 120.506 79.4254C120.229 79.1492 120.074 78.7746 120.074 78.384C120.074 77.9934 120.229 77.6188 120.506 77.3426C120.782 77.0664 121.156 76.9112 121.547 76.9112H199.734C200.125 76.9112 200.499 77.0664 200.776 77.3426C201.052 77.6188 201.207 77.9934 201.207 78.384C201.207 78.7746 201.052 79.1492 200.776 79.4254C200.499 79.7016 200.125 79.8568 199.734 79.8568Z" fill="black"/>
<path opacity="0.1" d="M199.734 86.42H121.547C121.156 86.42 120.782 86.2649 120.506 85.9887C120.229 85.7125 120.074 85.3378 120.074 84.9472C120.073 84.7536 120.111 84.5618 120.185 84.3827C120.259 84.2037 120.367 84.0411 120.504 83.9042C120.641 83.7672 120.804 83.6588 120.983 83.585C121.162 83.5113 121.353 83.4737 121.547 83.4744H199.734C200.125 83.4744 200.499 83.6296 200.776 83.9058C201.052 84.182 201.207 84.5566 201.207 84.9472C201.207 85.3378 201.052 85.7125 200.776 85.9887C200.499 86.2649 200.125 86.42 199.734 86.42Z" fill="black"/>
<path opacity="0.1" d="M199.734 92.9832H121.547C121.156 92.9832 120.782 92.828 120.506 92.5518C120.229 92.2756 120.074 91.901 120.074 91.5104C120.073 91.3165 120.111 91.1244 120.185 90.9451C120.258 90.7657 120.367 90.6027 120.504 90.4653C120.64 90.328 120.803 90.219 120.982 90.1446C121.161 90.0703 121.353 90.032 121.547 90.032H199.734C200.125 90.0335 200.5 90.1899 200.776 90.467C201.052 90.7441 201.207 91.1193 201.207 91.5104C201.207 91.901 201.052 92.2756 200.776 92.5518C200.499 92.828 200.125 92.9832 199.734 92.9832Z" fill="black"/>
<path opacity="0.1" d="M199.74 96.5952H121.547C120.734 96.5952 120.074 97.2546 120.074 98.068V98.0736C120.074 98.887 120.734 99.5464 121.547 99.5464H199.74C200.553 99.5464 201.213 98.887 201.213 98.0736V98.068C201.213 97.2546 200.553 96.5952 199.74 96.5952Z" fill="black"/>
<path opacity="0.1" d="M199.734 106.098H121.547C121.156 106.098 120.782 105.943 120.506 105.667C120.229 105.391 120.074 105.016 120.074 104.626C120.074 104.235 120.229 103.86 120.506 103.584C120.782 103.308 121.156 103.153 121.547 103.153H199.734C200.125 103.153 200.499 103.308 200.776 103.584C201.052 103.86 201.207 104.235 201.207 104.626C201.207 105.016 201.052 105.391 200.776 105.667C200.499 105.943 200.125 106.098 199.734 106.098Z" fill="black"/>
<path opacity="0.1" d="M199.734 112.667H121.547C121.156 112.667 120.782 112.512 120.506 112.236C120.229 111.96 120.074 111.585 120.074 111.194C120.073 111.001 120.111 110.809 120.185 110.63C120.259 110.451 120.367 110.288 120.504 110.151C120.641 110.014 120.804 109.906 120.983 109.832C121.162 109.758 121.353 109.721 121.547 109.722H199.734C200.125 109.722 200.499 109.877 200.776 110.153C201.052 110.429 201.207 110.804 201.207 111.194C201.207 111.585 201.052 111.96 200.776 112.236C200.499 112.512 200.125 112.667 199.734 112.667Z" fill="black"/>
<path opacity="0.1" d="M199.734 119.23H121.547C121.156 119.23 120.782 119.075 120.506 118.799C120.229 118.523 120.074 118.148 120.074 117.758C120.073 117.564 120.111 117.372 120.185 117.192C120.258 117.013 120.367 116.85 120.504 116.713C120.64 116.575 120.803 116.466 120.982 116.392C121.161 116.317 121.353 116.279 121.547 116.279H199.734C200.125 116.281 200.5 116.437 200.776 116.714C201.052 116.991 201.207 117.366 201.207 117.758C201.207 118.148 201.052 118.523 200.776 118.799C200.499 119.075 200.125 119.23 199.734 119.23Z" fill="black"/>
<path opacity="0.1" d="M199.734 125.794H121.547C121.353 125.794 121.161 125.755 120.982 125.681C120.803 125.607 120.64 125.498 120.504 125.36C120.367 125.223 120.258 125.06 120.185 124.881C120.111 124.701 120.073 124.509 120.074 124.315C120.074 123.925 120.229 123.55 120.506 123.274C120.782 122.998 121.156 122.842 121.547 122.842H199.734C200.125 122.842 200.499 122.998 200.776 123.274C201.052 123.55 201.207 123.925 201.207 124.315C201.207 124.706 201.052 125.082 200.776 125.359C200.5 125.636 200.125 125.792 199.734 125.794Z" fill="black"/>
<path opacity="0.1" d="M154.934 132.351H121.547C121.156 132.351 120.782 132.196 120.506 131.92C120.229 131.644 120.074 131.269 120.074 130.878C120.074 130.488 120.229 130.113 120.506 129.837C120.782 129.561 121.156 129.406 121.547 129.406H154.934C155.325 129.406 155.699 129.561 155.976 129.837C156.252 130.113 156.407 130.488 156.407 130.878C156.407 131.269 156.252 131.644 155.976 131.92C155.699 132.196 155.325 132.351 154.934 132.351Z" fill="black"/>
<path d="M193.72 67.2232L193.614 67.1336C193.311 66.904 193.138 66.9824 192.998 66.54C192.897 66.2208 192.998 65.8624 192.88 65.532C192.613 64.9632 192.308 64.4132 191.967 63.8856L190.59 61.4048C190.282 60.8554 189.769 60.4504 189.164 60.2782C188.558 60.1061 187.909 60.181 187.358 60.4864L174.674 67.5536C174.624 67.9792 174.271 68.2704 174.198 68.6736C174.173 68.7927 174.18 68.9163 174.217 69.0322C174.254 69.1481 174.321 69.2523 174.411 69.3344C174.269 69.3316 174.131 69.2824 174.019 69.1944C173.263 68.7744 173.062 68.4384 172.283 68.864C171.947 69.0432 171.617 69.2336 171.286 69.424L167.926 71.3L157.398 77.1632L145.078 84.04L134.814 89.7576C133.414 90.536 131.717 91.2192 130.468 92.2104C130.815 92.3896 130.877 92.664 130.569 92.9328L130.009 93.4424C130.009 93.5824 130.21 93.5824 130.339 93.5264L131.034 93.2296C130.551 93.8421 129.97 94.3702 129.314 94.792C128.213 95.4313 127.03 95.9173 125.798 96.2368L126.391 95.492C126.436 95.4304 126.492 95.352 126.453 95.2792C126.414 95.2064 126.341 95.2008 126.274 95.1952C125.977 95.1616 125.68 95.1952 125.462 94.9768C123.546 96.0968 121.542 97.1608 119.593 98.2472C119.043 98.5548 118.638 99.0675 118.466 99.6731C118.294 100.279 118.369 100.928 118.674 101.478L131.465 124.438C131.616 124.711 131.819 124.951 132.063 125.144C132.308 125.338 132.587 125.481 132.887 125.567C133.187 125.652 133.5 125.677 133.81 125.641C134.119 125.605 134.418 125.509 134.69 125.357L138.056 123.458C138.056 123.061 138.37 122.618 138.134 122.254C138.101 122.21 138.08 122.158 138.073 122.103C138.073 122.03 138.14 121.974 138.202 121.935C138.546 121.716 138.942 121.589 139.35 121.566C139.49 121.566 139.674 121.627 139.652 121.762C139.652 121.638 140.374 121.381 140.492 121.342C140.548 121.644 140.341 121.969 140.694 122.03C141.046 122.092 141.584 121.47 141.814 121.358L145.174 119.482L155.814 113.563L167.484 107.062L175.24 102.738C175.52 102.576 175.85 102.386 176.119 102.251C176.216 101.738 176.466 101.265 176.836 100.896C177.396 100.51 178.281 100.935 178.746 100.386C178.835 100.28 178.891 100.151 178.97 100.039C179.126 99.857 179.316 99.7068 179.53 99.5968C179.665 99.4905 179.828 99.4262 180 99.412C180.168 99.412 180.347 99.552 180.325 99.72C181.478 99.4512 182.52 98.6728 183.539 98.096C183.909 97.8888 187.151 96.3656 187.14 96.1248C187.095 95.38 187.549 94.7416 187.526 93.9744C187.526 93.8288 187.241 92.8544 187.37 92.7816C184.458 94.5176 181.434 96.0968 178.466 97.7432C178.365 97.8048 177.984 97.9336 177.906 98.0456C177.906 98.0456 177.878 98.096 177.866 98.124L177.782 98.3088V98.3536C177.662 98.7347 177.52 99.1086 177.357 99.4736C177.357 99.524 176.724 100.308 176.674 100.123C176.427 99.2216 176.114 99.0816 175.425 99.4512L174.439 100.011L171.309 101.753L160.764 107.633L148.338 114.554L137.983 120.322L133.643 122.736C132.777 121.168 131.905 119.602 131.028 118.038L129.348 115.019C129.178 114.601 128.927 114.22 128.609 113.899C128.368 113.72 127.959 113.765 127.746 113.602C127.226 113.205 126.85 112.482 126.358 112.018C126.022 111.704 125.512 110.763 125.652 110.242C125.82 110.31 125.988 110.382 126.156 110.433C126.068 110.088 126.088 109.725 126.212 109.391C124.532 106.563 122.986 103.606 121.379 100.717L121.273 100.532L125.193 98.348L128.054 96.752C128.643 96.499 129.205 96.1895 129.734 95.828C130.098 95.5144 130.468 95.1224 130.854 94.7864C131.114 94.5891 131.396 94.4237 131.694 94.2936L132.753 93.7784C132.807 93.7457 132.869 93.7265 132.932 93.7224C132.995 93.7293 133.057 93.7444 133.117 93.7672C133.677 93.8848 135.066 92.8488 135.57 92.5688L138.829 90.7544L148.662 85.272L160.915 78.4512L173.179 71.6136L183.046 66.12L188.086 63.32L188.322 63.1912L193.77 72.9744C194.107 73.6338 194.647 74.1677 195.31 74.4976C195.534 74.5704 195.786 74.7272 195.758 74.9568C195.73 75.1864 195.394 75.3768 195.473 75.612C195.551 75.8472 195.982 75.7576 196.083 75.9704C196.184 76.1832 195.91 76.5304 195.943 76.8216C196.059 77.1702 196.231 77.4975 196.453 77.7904L198.038 80.6408C198.922 82.22 199.802 83.8048 200.692 85.4008L191.004 90.7992C191.052 90.8378 191.092 90.8853 191.121 90.9392L191.172 91.068C191.364 91.1361 191.552 91.2185 191.732 91.3144C191.809 91.3575 191.873 91.4211 191.916 91.4982C191.96 91.5752 191.981 91.6628 191.978 91.7512C191.977 91.8386 191.952 91.9241 191.907 91.9989C191.862 92.0737 191.798 92.1351 191.721 92.1768L191.127 92.5128C191.106 92.6426 191.046 92.763 190.955 92.858C190.864 92.953 190.746 93.0181 190.618 93.0448C190.549 93.0505 190.479 93.0505 190.41 93.0448C190.351 93.088 190.284 93.1178 190.212 93.1323C190.141 93.1468 190.067 93.1456 189.996 93.1288C189.869 93.0898 189.762 93.0034 189.698 92.8876C189.633 92.7718 189.615 92.6356 189.649 92.5072C189.672 92.4496 189.702 92.395 189.738 92.3448C189.696 92.2632 189.677 92.1715 189.682 92.0797C189.688 91.9879 189.719 91.8995 189.772 91.824H189.593C189.492 91.824 189.402 91.768 189.307 91.74C188.803 92.051 188.411 92.5137 188.187 93.0616C188.163 93.0915 188.151 93.1295 188.154 93.168C188.154 93.2464 188.277 93.252 188.35 93.2856C188.518 93.364 188.478 93.6104 188.394 93.7728C188.31 93.9352 188.21 94.1424 188.322 94.288C188.364 94.337 188.411 94.382 188.462 94.4224C188.702 94.6968 188.333 95.492 188.921 95.1672C188.879 94.9942 188.905 94.812 188.994 94.6576C189.093 94.5017 189.247 94.388 189.425 94.3384C189.86 94.2327 190.304 94.169 190.752 94.148L202.428 87.6184C202.977 87.3108 203.382 86.7981 203.554 86.1925C203.727 85.5869 203.652 84.9377 203.346 84.3872L203.279 84.2696L198.004 74.8L194.958 69.3232C194.661 68.8024 194.398 68.2592 194.073 67.744C193.983 67.5528 193.864 67.377 193.72 67.2232Z" fill="#00856F"/>
<path d="M139.77 98.1632C139.384 97.6928 139.501 97.6816 139.428 97.1776C139.428 97.1776 139.428 97.1776 139.428 97.144L139.384 97.0936L139.316 97.0152C139.053 97.1328 138.79 97.2616 138.527 97.4072L133.369 100.28L135.447 104.004C135.156 103.489 136.186 103.64 136.225 103.634C136.334 103.602 136.447 103.583 136.561 103.578C136.673 103.602 136.771 103.668 136.836 103.763C137.051 104.14 137.115 104.584 137.015 105.006C136.953 105.566 137.25 106.126 136.931 106.686C137.205 107.134 139.686 111.648 139.697 111.642L144.855 108.77C145.152 108.602 145.857 108.305 146.031 108.008C146.204 107.711 145.93 107.246 146.238 107.106C146.354 107.064 146.478 107.048 146.601 107.059C146.724 107.071 146.843 107.11 146.949 107.174C147.931 106.201 148.563 104.93 148.744 103.559C148.926 102.189 148.647 100.797 147.952 99.6024C146.501 96.9984 143.208 95.4472 140.324 96.6568C140.123 96.7408 140.392 97.6424 139.91 97.7432C140.002 97.5626 140.134 97.4056 140.296 97.284L139.77 98.1632ZM143.511 106.658L141.108 107.997C140.912 107.644 140.722 107.291 140.52 106.95C140.772 107.375 140.078 107.241 139.932 107.146C139.58 106.91 139.484 106.233 139.473 105.852C139.465 105.199 139.27 104.562 138.913 104.015C138.349 102.996 137.789 101.977 137.233 100.958L139.636 99.6192C141.876 98.3648 144.116 98.8856 145.325 101.058C146.535 103.231 145.768 105.421 143.511 106.658Z" fill="#00856F"/>
<path d="M156.822 88.6264C156.944 88.8924 156.979 89.1904 156.922 89.4776C156.894 89.6344 156.642 90.0376 156.676 90.1384C156.766 90.3624 156.855 90.5864 156.939 90.8104C156.954 90.8471 156.975 90.8811 157.001 90.9112C157.044 90.9402 157.095 90.9558 157.146 90.956C158.037 91.0344 157.998 91.124 158.054 91.8744C158.104 92.5184 158.658 92.888 158.972 93.448C159.393 94.1838 159.576 95.0319 159.496 95.8759C159.416 96.7199 159.076 97.5183 158.524 98.1615C157.971 98.8046 157.233 99.261 156.411 99.4679C155.589 99.6747 154.723 99.622 153.932 99.3168C153.911 99.3371 153.889 99.3558 153.865 99.3728C153.747 99.4321 153.612 99.448 153.484 99.4176C153.193 99.3352 152.929 99.1756 152.721 98.9558C152.513 98.736 152.369 98.4641 152.302 98.1688C152.294 98.1244 152.294 98.0788 152.302 98.0344C152.144 97.8383 152.003 97.6284 151.882 97.4072C151.595 96.9445 151.405 96.4274 151.327 95.8882C151.248 95.349 151.282 94.7993 151.425 94.2737C151.569 93.748 151.819 93.2576 152.161 92.8332C152.503 92.4088 152.928 92.0595 153.411 91.8072C154.111 91.4078 154.914 91.2246 155.718 91.2808L155.674 91.2136C155.192 90.5752 156.928 90.3176 156.144 89.8864C155.814 89.7072 155.87 88.8952 155.786 88.5648C154.513 88.5935 153.268 88.938 152.162 89.5672C148.578 91.5664 147.341 95.5256 149.222 98.9024C150.014 100.355 151.324 101.457 152.89 101.988C153.259 102.148 153.654 102.24 154.055 102.257C154.514 102.218 154.29 102.257 154.486 101.982C154.682 101.708 154.565 101.59 154.862 101.299C155.158 101.008 155.506 100.834 155.567 100.386C155.567 100.588 155.791 100.734 155.791 100.946C155.791 101.008 155.791 101.07 155.791 101.126C155.803 101.199 155.836 101.267 155.886 101.322C156.077 101.579 156.396 101.882 156.402 102.178C157.221 102.043 158.007 101.754 158.72 101.327C162.287 99.3392 163.553 95.3856 161.66 91.9976C160.68 90.2672 158.838 88.7384 156.822 88.6264Z" fill="#00856F"/>
<path d="M168.274 80.8312L172.115 87.7248L162.629 83.9728L160.456 85.188C161.923 87.82 163.48 90.424 164.858 93.1064C164.953 92.8152 165.177 92.7592 165.446 92.72C165.95 92.6528 165.933 92.9048 166.207 93.4032C166.241 93.4648 166.28 93.5264 166.342 93.5376C166.403 93.5488 166.526 93.448 166.627 93.4592C166.728 93.4704 166.767 93.5936 166.739 93.6888C166.704 93.7821 166.657 93.8705 166.599 93.952C166.437 94.26 166.706 94.456 166.672 94.736C166.672 94.8816 166.185 95.4752 166.241 95.576L166.801 96.5392L169.399 95.0944L168.705 93.8512H168.576C167.82 93.952 168.156 92.9608 167.988 92.552C167.716 91.9729 167.407 91.4118 167.064 90.872L165.535 88.1784L173.246 91.2136C173.226 90.9921 173.253 90.7689 173.325 90.5584C173.386 90.4408 173.885 90.2224 173.885 90.1104C173.914 90.4716 174.082 90.8072 174.355 91.0456C174.652 91.3088 174.652 91.2696 174.596 91.7344L175.055 91.9192L177.217 90.7152L170.889 79.364L168.274 80.8312Z" fill="#00856F"/>
<path d="M181.327 85.6752L179.86 83.0488L185.135 80.1088L184.015 78.0648L178.746 81.0048L177.374 78.5352L180.935 76.5528C181.086 76.3588 181.277 76.2002 181.495 76.088C181.606 76.0312 181.733 76.0172 181.854 76.0488L183.36 75.2144C183.36 75.2144 182.29 73.3048 182.19 73.1032C181.674 73.3384 182.19 73.988 181.669 74.3016C181.775 74.4136 181.932 74.8112 181.669 74.8616C181.518 74.8616 181.406 74.6712 181.254 74.688C181.103 74.7048 181.098 74.7776 181.019 74.7552C180.995 74.7485 180.973 74.7364 180.955 74.7199C180.937 74.7034 180.922 74.6829 180.913 74.66C180.84 74.4911 180.748 74.3314 180.638 74.184C180.286 73.8424 177.066 75.9872 176.618 76.2392L173.622 77.9192L179.944 89.2704L182.47 87.8648L182.52 87.7976C182.705 87.5624 182.884 87.3216 183.08 87.1032C183.16 87.0276 183.261 86.9796 183.37 86.9665C183.479 86.9534 183.59 86.9758 183.685 87.0304C183.73 87.054 183.77 87.0863 183.802 87.1256L188.736 84.376L187.56 82.2648L181.327 85.6752Z" fill="#00856F"/>
<path d="M88.3888 135.218H68.8392C68.0862 135.218 67.364 135.518 66.8316 136.05C66.2991 136.582 66 137.305 66 138.058V157.064C66 157.817 66.2991 158.539 66.8316 159.072C67.364 159.604 68.0862 159.903 68.8392 159.903H75.0944L70.8832 165.626L78.1632 159.903H88.3832C89.1362 159.903 89.8584 159.604 90.3908 159.072C90.9233 158.539 91.2224 157.817 91.2224 157.064V138.058C91.2224 137.306 90.924 136.584 90.3928 136.052C89.8616 135.52 89.1408 135.22 88.3888 135.218Z" fill="#00856F"/>
<path opacity="0.6" d="M88.3888 135.218H68.8392C68.0862 135.218 67.364 135.518 66.8316 136.05C66.2991 136.582 66 137.305 66 138.058V157.064C66 157.817 66.2991 158.539 66.8316 159.072C67.364 159.604 68.0862 159.903 68.8392 159.903H75.0944L70.8832 165.626L78.1632 159.903H88.3832C89.1362 159.903 89.8584 159.604 90.3908 159.072C90.9233 158.539 91.2224 157.817 91.2224 157.064V138.058C91.2224 137.306 90.924 136.584 90.3928 136.052C89.8616 135.52 89.1408 135.22 88.3888 135.218Z" fill="white"/>
<path d="M78.6167 156.437C83.5188 156.437 87.4927 152.463 87.4927 147.561C87.4927 142.659 83.5188 138.685 78.6167 138.685C73.7146 138.685 69.7407 142.659 69.7407 147.561C69.7407 152.463 73.7146 156.437 78.6167 156.437Z" fill="#00856F"/>
<path opacity="0.2" d="M86.021 149.303C86.9865 145.213 84.453 141.114 80.3622 140.148C76.2715 139.183 72.1727 141.716 71.2072 145.807C70.2417 149.898 72.7752 153.997 76.8659 154.962C80.9566 155.928 85.0555 153.394 86.021 149.303Z" fill="black"/>
<path d="M77.6703 151.195C77.5671 151.197 77.4646 151.179 77.3685 151.142C77.2724 151.104 77.1847 151.048 77.1103 150.977L73.8791 147.813C73.7305 147.669 73.6453 147.472 73.6422 147.265C73.639 147.058 73.7182 146.858 73.8623 146.71C74.0063 146.561 74.2035 146.476 74.4104 146.473C74.6173 146.47 74.8169 146.549 74.9655 146.693L77.6143 149.286L82.1951 144.173C82.3355 144.031 82.525 143.949 82.7243 143.943C82.9236 143.937 83.1176 144.008 83.2663 144.141C83.415 144.274 83.507 144.458 83.5234 144.657C83.5398 144.856 83.4792 145.053 83.3543 145.209L78.2303 150.926C78.1596 151.005 78.0734 151.069 77.9771 151.113C77.8807 151.158 77.7763 151.182 77.6703 151.184V151.195Z" fill="white"/>
</svg>
